<?xml version="1.0" encoding="UTF-8"?><svg id="Layer_1" xmlns="http://www.w3.org/2000/svg" viewBox="0 0 650.58 1140.29"><defs><style>.cls-1{fill:none;stroke:#031684;stroke-miterlimit:10;stroke-width:1.03px;}</style></defs><path class="cls-1" d="m492.58,1150.54c-2.75-67.25,8.54-109.63,19.4-154.98,11.09-43.89,21.75-90.76,22.95-133.31,4.35-74.5-16.62-122.83-26.95-167.73-11.47-46.14-12.3-88.84,6.16-180.61,14.46-73.47,32.05-167.34,50.77-265.99,18.9-96.92,38.93-198.63,62.54-247.67"/><path class="cls-1" d="m483.93,1150.53c-3.66-69.25,5.66-111.84,15-156.37,9.52-43.09,19.05-88.12,19.98-129.22,3.84-71.67-15.38-119.24-23.99-163.84-9.68-45.83-8.74-88.68,10.58-179.31,15.16-72.76,32.78-165.69,51.33-265.03,18.73-97.61,38.41-201.62,61.97-256.49"/><path class="cls-1" d="m475.28,1150.52c-4.44-71.29,3.05-114.26,10.98-158.11,8.06-42.46,16.55-85.8,17.27-125.56,3.42-69.05-14.1-115.92-21.02-160.24-7.95-45.54-5.32-88.53,14.77-177.96,15.8-71.99,33.38-163.9,51.7-263.76,18.51-98.13,37.76-204.21,61.19-264.59"/><path class="cls-1" d="m466.63,1150.51c-5.1-73.39.7-116.87,7.33-160.21,6.72-41.96,14.25-83.78,14.79-122.32,3.07-66.66-12.76-112.87-18.07-156.94-6.28-45.27-2.04-88.38,18.74-176.55,16.37-71.18,33.85-161.99,51.89-262.2,18.22-98.49,36.99-206.38,60.2-271.97"/><path class="cls-1" d="m457.98,1150.5c-5.65-75.54-1.39-119.67,4.03-162.62,5.48-41.62,12.13-82.06,12.54-119.49,2.79-64.46-11.38-110.09-15.12-153.92-4.66-45.01,1.1-88.23,22.5-175.11,16.87-70.32,34.22-159.94,51.91-260.35,17.88-98.7,36.11-208.19,59.02-278.66"/><path class="cls-1" d="m449.34,1150.49c-6.07-77.7-3.24-122.62,1.09-165.33,4.35-41.42,10.2-80.62,10.52-117.07,2.58-62.46-9.95-107.55-12.18-151.17-3.1-44.78,4.11-88.08,26.03-173.62,17.3-69.42,34.46-157.78,51.77-258.24,17.49-98.76,35.12-209.62,57.66-284.68"/><path class="cls-1" d="m440.69,1150.48c-6.39-79.91-4.85-125.74-1.51-168.34,3.32-41.35,8.44-79.47,8.72-115.03,2.45-60.64-8.49-105.27-9.26-148.7-1.6-44.56,6.97-87.93,29.35-172.1,17.67-68.48,34.6-155.52,51.47-255.89,17.05-98.68,34.04-210.69,56.13-290.04"/><path class="cls-1" d="m432.05,1150.47c-6.6-82.12-6.23-128.98-3.79-171.6,2.39-41.41,6.86-78.58,7.13-113.35,2.38-59.02-7-103.22-6.37-146.48-.15-44.36,9.7-87.78,32.46-170.55,17.98-67.52,34.64-153.16,51.02-253.3,16.57-98.46,32.86-211.42,54.44-294.78"/><path class="cls-1" d="m423.4,1150.46c-6.7-84.36-7.39-132.36-5.74-175.12,1.55-41.59,5.44-77.95,5.74-112.04,2.37-57.57-5.47-101.4-3.5-144.51,1.23-44.17,12.29-87.62,35.36-168.97,18.24-66.52,34.59-150.72,50.44-250.5,16.05-98.12,31.6-211.82,52.6-298.89"/><path class="cls-1" d="m414.76,1150.44c-6.71-86.6-8.33-135.84-7.39-178.86.81-41.89,4.19-77.57,4.54-111.08,2.43-56.31-3.92-99.81-.66-142.78,2.56-44,14.73-87.48,38.05-167.38,18.43-65.49,34.43-148.19,49.73-247.49,15.48-97.65,30.27-211.9,50.63-302.42"/><path class="cls-1" d="m406.11,1150.43c-6.62-88.84-9.06-139.42-8.74-182.81.16-42.31,3.08-77.42,3.54-110.44,2.54-55.21-2.35-98.43,2.14-141.29,3.83-43.84,17.05-87.34,40.54-165.78,18.58-64.46,34.2-145.6,48.9-244.3,14.89-97.06,28.86-211.68,48.53-305.37"/><path class="cls-1" d="m397.47,1150.42c-6.43-91.06-9.59-143.08-9.8-186.94-.4-42.83,2.13-77.5,2.72-110.12,2.7-54.28-.77-97.26,4.9-140.03,5.04-43.7,19.22-87.19,42.83-164.16,18.67-63.4,33.88-142.95,47.95-240.93,14.27-96.37,27.39-211.16,46.31-307.77"/><path class="cls-1" d="m388.82,1150.41c-6.16-93.28-9.93-146.81-10.59-191.25-.88-43.46,1.33-77.8,2.07-110.11,2.92-53.5.83-96.29,7.62-138.98,6.2-43.58,21.26-87.05,44.92-162.55,18.71-62.33,33.48-140.25,46.9-237.42,13.61-95.57,25.87-210.37,43.99-309.63"/><path class="cls-1" d="m380.18,1150.4c-5.81-95.46-10.08-150.61-11.11-195.7-1.28-44.18.67-78.3,1.59-110.39,3.18-52.89,2.44-95.53,10.29-138.15,7.29-43.47,23.17-86.92,46.81-160.93,18.7-61.24,33.01-137.51,45.76-233.75,12.94-94.67,24.3-209.31,41.58-310.98"/><path class="cls-1" d="m371.54,1150.39c-5.38-97.62-10.05-154.44-11.38-200.29-1.6-44.99.14-79.01,1.27-110.96,3.49-52.42,4.06-94.94,12.9-137.52,8.33-43.37,24.93-86.78,48.52-159.32,18.64-60.16,32.48-134.75,44.52-229.98,12.24-93.68,22.69-208,39.08-311.83"/><path class="cls-1" d="m362.9,1150.38c-4.87-99.74-9.85-158.29-11.4-204.99-1.85-45.88-.26-79.91,1.11-111.79,3.84-52.08,5.67-94.53,15.46-137.07,9.3-43.28,26.56-86.66,50.03-157.73,18.54-59.07,31.88-131.96,43.21-226.08,11.53-92.6,21.04-206.44,36.5-312.21"/><path class="cls-1" d="m354.25,1150.37c-4.29-101.8-9.49-162.16-11.19-209.78-2.02-46.86-.54-80.99,1.09-112.88,4.23-51.9,7.28-94.3,17.95-136.82,10.22-43.21,28.06-86.54,51.36-156.15,18.4-57.98,31.23-129.15,41.83-222.09,10.8-91.44,19.37-204.65,33.87-312.13"/><path class="cls-1" d="m345.61,1150.36c-3.64-103.83-8.97-166.03-10.75-214.64-2.12-47.91-.7-82.23,1.21-114.21,4.65-51.84,8.88-94.23,20.38-136.75,11.07-43.15,29.42-86.43,52.5-154.6,18.22-56.91,30.53-126.35,40.39-218.03,10.06-90.21,17.67-202.66,31.19-311.61"/><path class="cls-1" d="m336.97,1150.35c-2.93-105.78-8.3-169.89-10.1-219.56-2.16-49.04-.74-83.63,1.47-115.76,5.11-51.91,10.48-94.31,22.74-136.84,11.87-43.1,30.64-86.32,53.46-153.08,18-55.83,29.78-123.55,38.89-213.9,9.31-88.91,15.96-200.47,28.46-310.69"/><path class="cls-1" d="m328.33,1150.34c-2.16-107.67-7.5-173.72-9.25-224.51-2.14-50.22-.68-85.18,1.85-117.54,5.6-52.1,12.05-94.55,25.02-137.1,12.61-43.06,31.73-86.21,54.25-151.58,17.75-54.78,28.98-120.76,37.34-209.72,8.57-87.55,14.25-198.08,25.71-309.36"/><path class="cls-1" d="m319.69,1150.33c-1.33-109.49-6.56-177.51-8.2-229.48-2.05-51.47-.51-86.88,2.35-119.5,6.11-52.41,13.61-94.93,27.22-137.51,13.28-43.03,32.68-86.12,54.86-150.12,17.46-53.74,28.16-118,35.76-205.52,7.82-86.14,12.54-195.52,22.94-307.66"/><path class="cls-1" d="m311.05,1150.32c-.45-111.22-5.49-181.24-6.98-234.44-1.9-52.76-.25-88.7,2.96-121.67,6.66-52.82,15.14-95.44,29.34-138.06,13.89-43.02,33.5-86.04,55.29-148.71,17.14-52.72,27.3-115.27,34.15-201.29,7.07-84.67,10.84-192.8,20.16-305.6"/><path class="cls-1" d="m302.41,1150.31c.48-112.86-4.31-184.91-5.58-239.38-1.71-54.11.11-90.65,3.67-124.02,7.22-53.33,16.65-96.08,31.37-138.76,14.45-43.01,34.19-85.96,55.56-147.34,16.79-51.72,26.41-112.59,32.52-197.06,6.33-83.16,9.15-189.92,17.38-303.21"/><path class="cls-1" d="m293.77,1150.31c1.45-114.41-3.02-188.49-4.02-244.28-1.45-55.5.55-92.7,4.48-126.52,13.99-109.61,45.53-167.03,88.97-285.62,16.41-50.75,25.5-109.96,30.88-192.85,5.6-81.62,7.49-186.92,14.62-300.5"/><path class="cls-1" d="m285.13,1150.3c2.46-115.85-1.62-191.98-2.31-249.12-1.16-56.92,1.08-94.85,5.38-129.17,15.35-110.64,48.45-168.7,90.74-285.31,16.01-49.82,24.58-107.4,29.23-188.67,4.88-80.04,5.85-183.79,11.88-297.49"/><path class="cls-1" d="m276.49,1150.29c3.5-117.18-.13-195.35-.46-253.88-.81-58.37,1.68-97.1,6.36-131.96,16.73-111.84,51.15-170.45,92.25-285.18,15.59-48.92,23.64-104.9,27.59-184.53,4.18-78.44,4.25-180.54,9.17-294.2"/><path class="cls-1" d="m267.85,1150.29c4.58-118.39,1.45-198.6,1.52-258.53-.42-59.86,2.35-99.43,7.42-134.88,18.14-113.21,53.65-172.26,93.5-285.22,15.14-48.07,22.7-102.48,25.97-180.45,3.5-76.82,2.7-177.21,6.52-290.66"/><path class="cls-1" d="m259.21,1150.28c5.69-119.48,3.12-201.72,3.62-263.07,0-61.36,3.08-101.83,8.55-137.91,19.56-114.74,55.92-174.11,94.48-285.43,14.67-47.25,21.76-100.15,24.36-176.45,2.84-75.19,1.2-173.78,3.92-286.88"/><path class="cls-1" d="m250.57,1150.28c6.82-120.43,4.85-204.68,5.83-267.47.47-62.87,3.88-104.29,9.74-141.04,20.98-116.41,57.97-175.99,95.19-285.82,14.19-46.49,20.82-97.92,22.79-172.54,2.21-73.55-.25-170.29,1.38-282.88"/><path class="cls-1" d="m241.93,1150.28c7.96-121.24,6.65-207.47,8.13-271.71.97-64.4,4.73-106.8,10.98-144.25,22.41-118.21,59.78-177.9,95.63-286.36,13.69-45.77,19.89-95.8,21.25-168.73,1.61-71.92-1.63-166.74-1.07-278.69"/><path class="cls-1" d="m233.29,1150.27c9.13-121.91,8.51-210.09,10.52-275.77,1.5-65.93,5.63-109.36,12.27-147.53,23.83-120.14,61.36-179.82,95.8-287.07,13.18-45.11,18.98-93.79,19.76-165.05,1.04-70.29-2.93-163.14-3.43-274.32"/><path class="cls-1" d="m224.66,1150.27c10.31-122.41,10.41-212.52,12.99-279.64,2.05-67.46,6.58-111.94,13.6-150.88,25.25-122.2,62.7-181.74,95.7-287.94,12.66-44.5,18.08-91.91,18.33-161.5.51-68.67-4.16-159.51-5.7-269.78"/><path class="cls-1" d="m216.02,1150.27c11.49-122.76,12.36-214.74,15.52-283.3,2.63-68.98,7.56-114.55,14.96-154.27,26.65-124.35,63.78-183.65,95.32-288.97,12.12-43.97,17.21-90.17,16.96-158.1.01-67.07-5.3-155.86-7.85-265.11"/><path class="cls-1" d="m207.38,1150.27c12.68-122.94,14.35-216.73,18.11-286.72,3.24-70.5,8.58-117.18,16.35-157.69,13.95-64.42,30.2-109.33,46.59-153.14,16.42-43.46,32.97-85.81,48.08-137.01,11.59-43.5,16.36-88.58,15.66-154.88-.43-65.49-6.35-152.21-9.88-260.32"/><path class="cls-1" d="m198.74,1150.27c13.87-122.94,16.36-218.5,20.75-289.88,3.86-71.99,9.62-119.8,17.76-161.13,14.53-65.77,31.05-110.91,47.21-154.85,16.22-43.54,32.07-85.88,46.53-136.63,11.04-43.09,15.56-87.13,14.44-151.83-.84-63.95-7.3-148.56-11.78-255.43"/><path class="cls-1" d="m190.1,1150.27c15.05-122.75,18.39-220.01,23.42-292.77,4.5-73.46,10.69-122.42,19.18-164.59,15.1-67.16,31.82-112.52,47.69-156.6,15.95-43.62,31.04-85.96,44.84-136.36,10.5-42.76,14.79-85.85,13.31-148.99-1.19-62.44-8.14-144.94-13.54-250.46"/><path class="cls-1" d="m181.46,1150.27c16.23-122.37,20.44-221.26,26.12-295.38,5.15-74.9,11.77-125.02,20.61-168.03,15.65-68.58,32.51-114.15,48.01-158.37,15.62-43.7,29.88-86.05,43.03-136.21,9.95-42.51,14.06-84.75,12.28-146.36-1.49-60.98-8.86-141.33-15.14-245.43"/><path class="cls-1" d="m172.82,1150.28c17.4-121.8,22.49-222.24,28.83-297.67,5.81-76.31,12.87-127.6,22.03-171.46,16.17-70.02,33.11-115.79,48.18-160.15,15.23-43.79,28.59-86.16,41.08-136.19,9.41-42.34,13.39-83.82,11.36-143.96-1.73-59.56-9.47-137.78-16.57-240.36"/><path class="cls-1" d="m164.18,1150.28c18.54-121.03,24.54-222.93,31.54-299.63,6.48-77.68,13.97-130.15,23.44-174.85,16.67-71.47,33.61-117.44,48.19-161.94,14.77-43.88,27.17-86.29,39.01-136.3,8.87-42.26,12.77-83.09,10.55-141.8-1.91-58.2-9.94-134.29-17.83-235.28"/><path class="cls-1" d="m155.55,1150.29c19.67-120.03,26.58-223.31,34.25-301.24,7.15-79,15.07-132.65,24.84-178.2,17.14-72.94,34.02-119.09,48.04-163.74,14.24-43.97,25.62-86.43,36.82-136.54,8.33-42.27,12.2-82.55,9.86-139.91-2.03-56.9-10.28-130.87-18.91-230.19"/><path class="cls-1" d="m146.91,1150.29c20.78-118.81,28.6-223.38,36.93-302.48,7.83-80.27,16.17-135.08,26.21-181.5,17.57-74.42,34.32-120.73,47.72-165.52,13.65-44.07,23.94-86.6,34.51-136.93,7.8-42.37,11.71-82.23,9.3-138.28-2.08-55.67-10.47-127.54-19.78-225.12"/><path class="cls-1" d="m138.27,1150.3c21.86-117.37,30.59-223.11,39.6-303.33,8.5-81.49,17.26-137.46,27.55-184.72,17.97-75.9,34.53-122.37,47.22-167.29,12.99-44.16,22.13-86.78,32.09-137.46,7.29-42.56,11.28-82.12,8.88-136.95-2.06-54.51-10.52-124.3-20.45-220.09"/><path class="cls-1" d="m129.63,1150.31c22.9-115.69,32.56-222.5,42.22-303.78,9.17-82.65,18.34-139.76,28.86-187.86,18.34-77.38,34.62-123.97,46.55-169.03,12.27-44.26,20.2-86.98,29.55-138.15,6.78-42.86,10.93-82.25,8.61-135.93-1.97-53.44-10.41-121.17-20.9-215.12"/><path class="cls-1" d="m120.99,1150.32c23.91-113.76,34.48-221.53,44.79-303.79,9.83-83.74,19.4-141.98,30.12-190.9,18.66-78.84,34.6-125.55,45.7-170.74,11.48-44.36,18.13-87.2,26.89-138.99,6.29-43.26,10.66-82.61,8.5-135.23-1.8-52.45-10.13-118.17-21.12-210.22"/><path class="cls-1" d="m112.35,1150.34c24.88-111.59,36.35-220.19,47.3-303.36,10.48-84.76,20.43-144.1,31.33-193.84,18.94-80.29,34.46-127.09,44.66-172.41,10.63-44.45,15.94-87.43,24.14-139.99,5.81-43.77,10.47-83.22,8.55-134.87-1.55-51.55-9.68-115.31-21.09-205.43"/><path class="cls-1" d="m103.71,1150.35c25.81-109.16,38.17-218.46,49.75-302.47,11.11-85.7,21.43-146.11,32.47-196.65,19.17-81.72,34.2-128.58,43.44-174.04,9.7-44.55,13.62-87.69,21.27-141.16,5.35-44.39,10.37-84.08,8.78-134.85-1.22-50.75-9.05-112.59-20.82-200.75"/><path class="cls-1" d="m95.07,1150.36c26.68-106.46,39.93-216.34,52.11-301.09,11.73-86.56,22.4-148.01,33.55-199.33,19.35-83.12,33.81-130.03,42.01-175.6,8.72-44.65,11.17-87.97,18.3-142.5,4.91-45.13,10.37-85.21,9.18-135.21-.8-50.06-8.24-110.03-20.29-196.22"/><path class="cls-1" d="m86.43,1150.38c27.51-103.5,41.61-213.79,54.38-299.21,12.33-87.33,23.32-149.79,34.56-201.86,19.47-84.49,33.29-131.4,40.39-177.1,7.66-44.74,8.6-88.27,15.24-144.02,4.5-45.98,10.46-86.61,9.78-135.95-.29-49.47-7.23-107.65-19.48-191.84"/><path class="cls-1" d="m77.79,1150.4c28.28-100.25,43.23-210.82,56.55-296.81,12.91-88.01,24.19-151.44,35.49-204.22,19.55-85.83,32.64-132.72,38.57-178.53,6.53-44.83,5.9-88.59,12.08-145.71,4.1-46.96,10.67-88.3,10.57-137.09.31-49-6.03-105.46-18.39-187.64"/><path class="cls-1" d="m69.14,1150.42c28.99-96.73,44.75-207.42,58.61-293.87,13.46-88.59,25.02-152.94,36.33-206.41,19.56-87.13,31.85-133.96,36.53-179.88,5.34-44.92,3.07-88.94,8.82-147.6,3.74-48.07,10.98-90.28,11.57-138.64,1.01-48.66-4.61-103.48-17-183.63"/><path class="cls-1" d="m60.5,1150.44c29.64-92.9,46.18-203.55,60.55-290.36,13.98-89.07,25.79-154.29,37.08-208.42,19.51-88.37,30.92-135.12,34.29-181.13,4.08-45.01.11-89.3,5.47-149.68,3.4-49.31,11.41-92.56,12.79-140.62,1.81-48.44-2.99-101.7-15.31-179.85"/><path class="cls-1" d="m51.86,1150.46c30.22-88.77,47.51-199.21,62.35-286.27,14.47-89.43,26.49-155.48,37.72-210.22,19.39-89.57,29.85-136.19,31.82-182.29,2.75-45.1-2.97-89.69,2.03-151.95,3.1-50.68,11.95-95.15,14.23-143.05,2.72-48.36-1.14-100.15-13.3-176.3"/><path class="cls-1" d="m43.22,1150.48c30.72-84.34,48.73-194.39,64.01-281.58,14.93-89.68,27.13-156.49,38.26-211.81,19.21-90.7,28.62-137.15,29.14-183.35,1.36-45.18-6.17-90.1-1.49-154.43,2.82-52.19,12.62-98.07,15.9-145.94,3.73-48.43.94-98.84-10.96-173.01"/><path class="cls-1" d="m34.58,1150.51c31.15-79.59,49.84-189.08,65.51-276.28,15.35-89.81,27.69-157.32,38.68-213.18,18.96-91.77,27.24-138.02,26.23-184.29-.11-45.26-9.5-90.54-5.09-157.12,2.58-53.85,13.43-101.31,17.81-149.3,4.85-48.64,3.25-97.8-8.29-169.99"/><path class="cls-1" d="m25.93,1150.53c31.51-74.51,50.82-183.25,66.85-270.33,15.73-89.81,28.17-157.95,38.97-214.3,18.63-92.78,25.7-138.77,23.09-185.11-1.64-45.33-12.96-91-8.78-160.02,2.38-55.65,14.37-104.9,19.97-153.16,6.09-49,5.8-97.01-5.26-167.27"/><path class="cls-1" d="m17.29,1150.56c31.78-69.11,51.68-176.9,68.02-263.73,16.06-89.68,28.57-158.39,39.14-215.17,18.23-93.71,24-139.41,19.72-185.8-3.25-45.4-16.54-91.49-12.54-163.14,2.22-57.59,15.44-108.83,22.39-157.52,7.44-49.52,8.61-96.5-1.88-164.87"/><path class="cls-1" d="m8.64,1150.59c31.96-63.37,52.39-170.02,69-256.46,16.35-89.41,28.88-158.62,39.17-215.78,17.75-94.55,22.13-139.91,16.11-186.35-4.92-45.46-20.25-92-16.38-166.48,2.1-59.7,16.67-113.12,25.08-162.4,8.92-50.21,11.67-96.29,1.87-162.8"/><path class="cls-1" d="m0,1150.63c32.05-57.29,52.96-162.58,69.78-248.49,16.6-89,29.1-158.62,39.05-216.11,17.18-95.32,20.09-140.29,12.25-186.76-6.66-45.52-24.08-92.54-20.29-170.05,2.01-61.96,18.04-117.77,28.03-167.82,10.51-51.08,14.99-96.38,6-161.09"/></svg>