<?xml version="1.0" encoding="UTF-8"?><svg id="Layer_1" xmlns="http://www.w3.org/2000/svg" viewBox="0 0 882.99 1080"><defs><style>.cls-1{fill:none;stroke:#031684;stroke-miterlimit:10;}</style></defs><path class="cls-1" d="m542.36,1079.12c155.69-75.43,249.14-174.87,292.86-274.99,37.29-85.84,38.43-158.09,30.45-232.44-9.1-74.35-27.34-150.8-54.61-244.99C765.95,176.43,715.25,70.56,677.01.41"/><path class="cls-1" d="m533.72,1079.12c155.69-75.43,249.14-174.87,292.86-274.99,37.28-85.84,38.43-158.09,30.44-232.44-9.1-74.35-27.34-150.8-54.61-244.99C757.3,176.43,706.61,70.56,668.37.41"/><path class="cls-1" d="m525.07,1079.12c155.7-75.43,249.14-174.87,292.86-274.99,37.29-85.84,38.44-158.09,30.45-232.44-9.1-74.35-27.34-150.8-54.61-244.99C748.65,176.43,697.96,70.56,659.72.41"/><path class="cls-1" d="m516.43,1079.12c155.7-75.43,249.14-174.87,292.86-274.99,37.29-85.84,38.43-158.09,30.45-232.44-9.1-74.35-27.34-150.8-54.61-244.99C740.01,176.43,689.32,70.56,651.08.41"/><path class="cls-1" d="m507.78,1079.12c155.69-75.43,249.14-174.87,292.86-274.99,37.29-85.84,38.44-158.09,30.45-232.44-9.1-74.35-27.34-150.8-54.61-244.99C731.36,176.43,680.67,70.56,642.43.41"/><path class="cls-1" d="m499.14,1079.12c155.7-75.43,249.14-174.87,292.86-274.99,37.29-85.84,38.43-158.09,30.45-232.44-9.1-74.35-27.34-150.8-54.61-244.99C722.72,176.43,672.03,70.56,633.79.41"/><path class="cls-1" d="m490.49,1079.12c155.7-75.43,249.14-174.87,292.86-274.99,37.29-85.84,38.43-158.09,30.45-232.44-9.1-74.35-27.34-150.8-54.61-244.99C714.08,176.43,663.39,70.56,625.14.41"/><path class="cls-1" d="m481.85,1079.12c155.7-75.43,249.14-174.87,292.86-274.99,37.29-85.84,38.43-158.09,30.45-232.44-9.1-74.35-27.34-150.8-54.61-244.99C705.43,176.43,654.74,70.56,616.5.41"/><path class="cls-1" d="m473.21,1079.12c155.69-75.43,249.14-174.87,292.86-274.99,37.29-85.84,38.44-158.09,30.45-232.44-9.1-74.35-27.34-150.8-54.61-244.99C696.79,176.43,646.09,70.56,607.85.41"/><path class="cls-1" d="m464.56,1079.12c155.69-75.43,249.14-174.87,292.86-274.99,37.29-85.84,38.43-158.09,30.45-232.44-9.1-74.35-27.34-150.8-54.61-244.99C688.14,176.43,637.45,70.56,599.21.41"/><path class="cls-1" d="m455.91,1079.12c155.7-75.43,249.14-174.87,292.86-274.99,37.29-85.84,38.44-158.09,30.45-232.44-9.1-74.35-27.34-150.8-54.61-244.99C679.5,176.43,628.8,70.56,590.56.41"/><path class="cls-1" d="m447.27,1079.12c155.7-75.43,249.14-174.87,292.86-274.99,37.29-85.84,38.43-158.09,30.45-232.44-9.1-74.35-27.34-150.8-54.61-244.99C670.85,176.43,620.16,70.56,581.92.41"/><path class="cls-1" d="m438.63,1079.12c155.69-75.43,249.14-174.87,292.86-274.99,37.29-85.84,38.43-158.09,30.45-232.44-9.1-74.35-27.34-150.8-54.61-244.99C662.21,176.43,611.51,70.56,573.27.41"/><path class="cls-1" d="m429.98,1079.12c155.7-75.43,249.14-174.87,292.86-274.99,37.29-85.84,38.44-158.09,30.45-232.44-9.1-74.35-27.34-150.8-54.61-244.99C653.56,176.43,602.87,70.56,564.63.41"/><path class="cls-1" d="m421.34,1079.12c155.7-75.43,249.14-174.87,292.86-274.99,37.29-85.84,38.43-158.09,30.45-232.44-9.1-74.35-27.34-150.8-54.61-244.99C644.92,176.43,594.22,70.56,555.98.41"/><path class="cls-1" d="m412.69,1079.12c155.7-75.43,249.14-174.87,292.86-274.99,37.29-85.84,38.43-158.09,30.45-232.44-9.1-74.35-27.34-150.8-54.61-244.99C636.28,176.43,585.58,70.56,547.34.41"/><path class="cls-1" d="m404.05,1079.12c155.69-75.43,249.14-174.87,292.86-274.99,37.28-85.84,38.43-158.09,30.45-232.44-9.1-74.35-27.34-150.8-54.61-244.99C627.63,176.43,576.94,70.56,538.69.41"/><path class="cls-1" d="m395.4,1079.12c155.7-75.43,249.14-174.87,292.86-274.99,37.29-85.84,38.43-158.09,30.45-232.44-9.1-74.35-27.34-150.8-54.61-244.99C618.98,176.43,568.29,70.56,530.05.41"/><path class="cls-1" d="m386.76,1079.12c155.7-75.43,249.14-174.87,292.86-274.99,37.29-85.84,38.43-158.09,30.45-232.44-9.1-74.35-27.34-150.8-54.61-244.99C610.34,176.43,559.64,70.56,521.4.41"/><path class="cls-1" d="m378.11,1079.12c155.69-75.43,249.14-174.87,292.86-274.99,37.29-85.84,38.43-158.09,30.45-232.44-9.1-74.35-27.34-150.8-54.61-244.99C601.69,176.43,551,70.56,512.76.41"/><path class="cls-1" d="m369.47,1079.12c155.7-75.43,249.14-174.87,292.86-274.99,37.29-85.84,38.43-158.09,30.44-232.44-9.1-74.35-27.34-150.8-54.61-244.99C593.05,176.43,542.35,70.56,504.12.41"/><path class="cls-1" d="m360.82,1079.12c155.7-75.43,249.14-174.87,292.86-274.99,37.29-85.84,38.43-158.09,30.45-232.44-9.1-74.35-27.34-150.8-54.61-244.99C584.4,176.43,533.71,70.56,495.47.41"/><path class="cls-1" d="m352.18,1079.12c155.69-75.43,249.14-174.87,292.86-274.99,37.29-85.84,38.43-158.09,30.45-232.44-9.1-74.35-27.34-150.8-54.61-244.99C575.76,176.43,525.06,70.56,486.83.41"/><path class="cls-1" d="m343.53,1079.12c155.69-75.43,249.15-174.87,292.86-274.99,37.29-85.84,38.43-158.09,30.44-232.44-9.1-74.35-27.34-150.8-54.61-244.99C567.11,176.43,516.42,70.56,478.18.41"/><path class="cls-1" d="m334.89,1079.12c155.7-75.43,249.14-174.87,292.86-274.99,37.29-85.84,38.43-158.09,30.45-232.44-9.1-74.35-27.34-150.8-54.61-244.99C558.47,176.43,507.77,70.56,469.54.41"/><path class="cls-1" d="m326.24,1079.12c155.7-75.43,249.14-174.87,292.86-274.99,37.29-85.84,38.43-158.09,30.45-232.44-9.1-74.35-27.34-150.8-54.61-244.99C549.82,176.43,499.13,70.56,460.89.41"/><path class="cls-1" d="m317.6,1079.12c155.7-75.43,249.14-174.87,292.86-274.99,37.29-85.84,38.44-158.09,30.45-232.44-9.1-74.35-27.34-150.8-54.61-244.99C541.18,176.43,490.49,70.56,452.25.41"/><path class="cls-1" d="m308.95,1079.12c155.7-75.43,249.14-174.87,292.86-274.99,37.29-85.84,38.44-158.09,30.45-232.44-9.1-74.35-27.34-150.8-54.61-244.99C532.53,176.43,481.84,70.56,443.6.41"/><path class="cls-1" d="m300.31,1079.12c155.7-75.43,249.14-174.87,292.86-274.99,37.29-85.84,38.44-158.09,30.45-232.44-9.1-74.35-27.34-150.8-54.61-244.99C523.89,176.43,473.2,70.56,434.96.41"/><path class="cls-1" d="m291.66,1079.12c155.7-75.43,249.14-174.87,292.86-274.99,37.29-85.84,38.43-158.09,30.45-232.44-9.1-74.35-27.34-150.8-54.61-244.99C515.25,176.43,464.55,70.56,426.31.41"/><path class="cls-1" d="m283.02,1079.12c155.7-75.43,249.14-174.87,292.86-274.99,37.29-85.84,38.43-158.09,30.45-232.44-9.1-74.35-27.34-150.8-54.61-244.99C506.6,176.43,455.91,70.56,417.67.41"/><path class="cls-1" d="m274.37,1079.12c155.7-75.43,249.14-174.87,292.86-274.99,37.29-85.84,38.43-158.09,30.45-232.44-9.1-74.35-27.34-150.8-54.61-244.99C497.95,176.43,447.26,70.56,409.02.41"/><path class="cls-1" d="m265.73,1079.12c155.69-75.43,249.14-174.87,292.86-274.99,37.29-85.84,38.43-158.09,30.45-232.44-9.1-74.35-27.34-150.8-54.61-244.99C489.31,176.43,438.62,70.56,400.38.41"/><path class="cls-1" d="m257.08,1079.12c155.69-75.43,249.14-174.87,292.86-274.99,37.29-85.84,38.43-158.09,30.45-232.44-9.1-74.35-27.34-150.8-54.61-244.99C480.66,176.43,429.97,70.56,391.73.41"/><path class="cls-1" d="m248.44,1079.12c155.7-75.43,249.14-174.87,292.86-274.99,37.29-85.84,38.44-158.09,30.45-232.44-9.1-74.35-27.34-150.8-54.61-244.99C472.02,176.43,421.33,70.56,383.09.41"/><path class="cls-1" d="m239.79,1079.12c155.69-75.43,249.14-174.87,292.86-274.99,37.29-85.84,38.43-158.09,30.45-232.44-9.1-74.35-27.34-150.8-54.61-244.99C463.37,176.43,412.68,70.56,374.44.41"/><path class="cls-1" d="m231.15,1079.12c155.7-75.43,249.14-174.87,292.86-274.99,37.29-85.84,38.44-158.09,30.45-232.44-9.1-74.35-27.34-150.8-54.61-244.99C454.73,176.43,404.04,70.56,365.8.41"/><path class="cls-1" d="m222.5,1079.12c155.7-75.43,249.14-174.87,292.86-274.99,37.29-85.84,38.43-158.09,30.45-232.44-9.1-74.35-27.34-150.8-54.61-244.99C446.08,176.43,395.39,70.56,357.15.41"/><path class="cls-1" d="m213.86,1079.12c155.69-75.43,249.14-174.87,292.86-274.99,37.29-85.84,38.43-158.09,30.45-232.44-9.1-74.35-27.34-150.8-54.61-244.99C437.44,176.43,386.75,70.56,348.51.41"/><path class="cls-1" d="m205.21,1079.12c155.7-75.43,249.14-174.87,292.86-274.99,37.29-85.84,38.44-158.09,30.45-232.44-9.1-74.35-27.34-150.8-54.61-244.99C428.8,176.43,378.1,70.56,339.86.41"/><path class="cls-1" d="m196.57,1079.12c155.7-75.43,249.14-174.87,292.86-274.99,37.29-85.84,38.43-158.09,30.45-232.44-9.1-74.35-27.34-150.8-54.61-244.99C420.14,176.43,369.46,70.56,331.22.41"/><path class="cls-1" d="m187.93,1079.12c155.7-75.43,249.14-174.87,292.86-274.99,37.28-85.84,38.43-158.09,30.45-232.44-9.1-74.35-27.34-150.8-54.61-244.99C411.51,176.43,360.81,70.56,322.57.41"/><path class="cls-1" d="m179.28,1079.12c155.7-75.43,249.14-174.87,292.86-274.99,37.29-85.84,38.44-158.09,30.45-232.44-9.1-74.35-27.34-150.8-54.61-244.99C402.86,176.43,352.17,70.56,313.93.41"/><path class="cls-1" d="m170.64,1079.12c155.7-75.43,249.14-174.87,292.86-274.99,37.29-85.84,38.43-158.09,30.45-232.44-9.1-74.35-27.34-150.8-54.61-244.99C394.21,176.43,343.53,70.56,305.28.41"/><path class="cls-1" d="m161.99,1079.12c155.7-75.43,249.14-174.87,292.86-274.99,37.28-85.84,38.43-158.09,30.45-232.44-9.1-74.35-27.34-150.8-54.61-244.99C385.57,176.43,334.88,70.56,296.64.41"/><path class="cls-1" d="m153.35,1079.12c155.7-75.43,249.14-174.87,292.86-274.99,37.29-85.84,38.43-158.09,30.45-232.44-9.1-74.35-27.34-150.8-54.61-244.99C376.93,176.43,326.23,70.56,287.99.41"/><path class="cls-1" d="m144.7,1079.12c155.7-75.43,249.14-174.87,292.86-274.99,37.29-85.84,38.43-158.09,30.45-232.44-9.1-74.35-27.34-150.8-54.61-244.99C368.28,176.43,317.59,70.56,279.35.41"/><path class="cls-1" d="m136.06,1079.12c155.7-75.43,249.14-174.87,292.86-274.99,37.29-85.84,38.43-158.09,30.45-232.44-9.1-74.35-27.34-150.8-54.61-244.99C359.64,176.43,308.94,70.56,270.71.41"/><path class="cls-1" d="m127.41,1079.12c155.69-75.43,249.14-174.87,292.86-274.99,37.29-85.84,38.44-158.09,30.45-232.44-9.1-74.35-27.34-150.8-54.61-244.99C350.99,176.43,300.3,70.56,262.06.41"/><path class="cls-1" d="m118.77,1079.12c155.69-75.43,249.14-174.87,292.86-274.99,37.29-85.84,38.43-158.09,30.45-232.44-9.1-74.35-27.34-150.8-54.61-244.99C342.35,176.43,291.66,70.56,253.41.41"/><path class="cls-1" d="m110.12,1079.12c155.7-75.43,249.14-174.87,292.86-274.99,37.29-85.84,38.43-158.09,30.45-232.44-9.1-74.35-27.34-150.8-54.61-244.99C333.7,176.43,283.01,70.56,244.77.41"/><path class="cls-1" d="m101.48,1079.12c155.69-75.43,249.14-174.87,292.86-274.99,37.29-85.84,38.43-158.09,30.45-232.44-9.1-74.35-27.34-150.8-54.61-244.99C325.06,176.43,274.37,70.56,236.13.41"/><path class="cls-1" d="m92.83,1079.12c155.69-75.43,249.14-174.87,292.86-274.99,37.29-85.84,38.43-158.09,30.45-232.44-9.1-74.35-27.34-150.8-54.61-244.99C316.41,176.43,265.72,70.56,227.48.41"/><path class="cls-1" d="m84.19,1079.12c155.7-75.43,249.14-174.87,292.86-274.99,37.29-85.84,38.43-158.09,30.45-232.44-9.1-74.35-27.34-150.8-54.61-244.99C307.77,176.43,257.08,70.56,218.84.41"/><path class="cls-1" d="m75.54,1079.12c155.7-75.43,249.14-174.87,292.86-274.99,37.29-85.84,38.44-158.09,30.45-232.44-9.1-74.35-27.34-150.8-54.61-244.99C299.12,176.43,248.44,70.56,210.19.41"/><path class="cls-1" d="m66.9,1079.12c155.7-75.43,249.14-174.87,292.86-274.99,37.29-85.84,38.43-158.09,30.45-232.44-9.1-74.35-27.34-150.8-54.61-244.99C290.48,176.43,239.78,70.56,201.55.41"/><path class="cls-1" d="m58.25,1079.12c155.7-75.43,249.14-174.87,292.86-274.99,37.29-85.84,38.43-158.09,30.45-232.44-9.1-74.35-27.34-150.8-54.61-244.99C281.83,176.43,231.14,70.56,192.9.41"/><path class="cls-1" d="m49.61,1079.12c155.7-75.43,249.14-174.87,292.86-274.99,37.29-85.84,38.43-158.09,30.45-232.44-9.1-74.35-27.34-150.8-54.61-244.99C273.19,176.43,222.5,70.56,184.26.41"/></svg>