<?xml version="1.0" encoding="UTF-8"?><svg id="Layer_1" xmlns="http://www.w3.org/2000/svg" viewBox="0 0 1920 712.19"><defs><style>.cls-1{fill:none;stroke:#031684;stroke-miterlimit:10;}</style></defs><path class="cls-1" d="m.41,535.06c112.3-2.8,183.02,8.46,258.69,19.31,73.24,11.07,151.42,21.73,222.42,22.92,124.28,4.35,204.93-16.62,279.85-26.95,76.98-11.46,148.22-12.29,301.35,6.17,122.6,14.46,279.21,32.05,443.81,50.77,161.7,18.9,331.4,38.93,413.14,62.54"/><path class="cls-1" d="m.41,526.41c115.62-3.7,186.72,5.59,261.02,14.91,71.91,9.5,147.02,19.03,215.6,19.96,119.57,3.83,198.94-15.39,273.35-23.99,76.46-9.67,147.97-8.72,299.18,10.59,121.4,15.17,276.47,32.78,442.22,51.33,162.85,18.73,336.39,38.4,427.89,61.96"/><path class="cls-1" d="m.42,517.76c119.05-4.49,190.77,2.98,263.94,10.89,70.85,8.04,143.15,16.53,209.5,17.24,115.22,3.41,193.41-14.11,267.36-21.03,75.98-7.95,147.72-5.31,296.92,14.79,120.12,15.8,273.49,33.38,440.1,51.7,163.73,18.5,340.71,37.75,441.41,61.18"/><path class="cls-1" d="m.43,509.12c122.55-5.15,195.13.63,267.44,7.23,70.03,6.7,139.8,14.22,204.1,14.76,111.21,3.06,188.32-12.77,261.85-18.07,75.53-6.27,147.46-2.03,294.58,18.76,118.76,16.37,270.28,33.86,437.49,51.89,164.34,18.22,344.36,36.98,453.75,60.19"/><path class="cls-1" d="m.43,500.47c126.12-5.7,199.8-1.47,271.48,3.94,69.46,5.46,136.93,12.1,199.4,12.51,107.54,2.79,183.67-11.38,256.81-15.12,75.1-4.66,147.21,1.12,292.16,22.51,117.32,16.88,266.87,34.22,434.42,51.91,164.69,17.88,347.37,36.1,464.92,59.01"/><path class="cls-1" d="m.44,491.82c129.75-6.12,204.74-3.32,276.02,1,69.13,4.33,134.55,10.17,195.35,10.49,104.2,2.57,179.45-9.96,252.23-12.19,74.71-3.1,146.95,4.12,289.68,26.05,115.82,17.31,263.28,34.47,430.91,51.77,164.79,17.49,349.77,35.12,474.98,57.64"/><path class="cls-1" d="m.45,483.18c133.43-6.43,209.93-4.93,281.04-1.6,69.01,3.3,132.62,8.41,191.95,8.69,101.18,2.44,175.63-8.5,248.09-9.27,74.34-1.6,146.7,6.98,287.14,29.37,114.26,17.68,259.5,34.61,426.99,51.47,164.66,17.05,351.57,34.02,483.95,56.12"/><path class="cls-1" d="m.45,474.53c137.13-6.64,215.36-6.3,286.5-3.88,69.11,2.37,131.14,6.83,189.16,7.09,98.48,2.37,172.22-7,244.39-6.37,74-.15,146.44,9.71,284.55,32.48,112.65,17.99,255.57,34.65,422.67,51.03,164.3,16.56,352.79,32.85,491.85,54.42"/><path class="cls-1" d="m.46,465.89c140.86-6.74,220.99-7.46,292.36-5.83,69.42,1.53,130.09,5.41,186.98,5.7,96.07,2.37,169.19-5.48,241.11-3.5,73.69,1.24,146.19,12.3,281.93,35.38,110.99,18.24,251.49,34.59,418,50.44,163.73,16.04,353.47,31.59,498.74,52.59"/><path class="cls-1" d="m.47,457.24c144.6-6.75,226.81-8.4,298.61-7.48,69.93.79,129.46,4.16,185.37,4.51,93.96,2.42,166.53-3.93,238.23-.67,73.41,2.57,145.94,14.75,279.27,38.07,109.29,18.44,247.28,34.43,412.99,49.73,162.95,15.48,353.61,30.26,504.63,50.61"/><path class="cls-1" d="m.48,448.6c148.33-6.65,232.79-9.13,305.21-8.83,70.62.14,129.22,3.05,184.31,3.5,92.13,2.54,164.23-2.36,235.74,2.14,73.15,3.84,145.7,17.07,276.59,40.55,107.55,18.58,242.96,34.2,407.66,48.89,161.98,14.89,353.24,28.85,509.56,48.51"/><path class="cls-1" d="m.48,439.96c152.05-6.47,238.9-9.66,312.11-9.89,71.5-.43,129.36,2.1,183.79,2.68,90.57,2.69,162.29-.78,233.63,4.9,72.91,5.05,145.46,19.24,273.9,42.85,105.79,18.67,238.55,33.88,402.06,47.95,160.82,14.26,352.38,27.38,513.57,46.29"/><path class="cls-1" d="m.49,431.31c155.74-6.2,245.13-9.99,319.3-10.68,72.54-.9,129.86,1.3,183.78,2.03,91.18,2.47,158.84,1.25,231.76,7.65,74.66,5.75,143.46,21.68,271.33,44.91,104,18.71,234.05,33.48,396.19,46.9,159.48,13.61,351.06,25.85,516.69,43.97"/><path class="cls-1" d="m.5,422.67c159.39-5.84,251.45-10.15,326.74-11.2,73.74-1.3,130.71.64,184.26,1.56,90.25,2.74,157.45,2.86,230.36,10.31,74.59,6.85,143.14,23.58,268.64,46.8,102.2,18.7,229.48,33.01,390.09,45.75,157.99,12.93,349.3,24.28,518.95,41.56"/><path class="cls-1" d="m.5,414.02c162.98-5.41,257.85-10.11,334.4-11.47,75.1-1.62,131.89.1,185.2,1.24,89.57,3.05,156.37,4.46,229.3,12.93,74.52,7.89,142.83,25.34,265.97,48.51,100.38,18.65,224.86,32.48,383.78,44.52,156.33,12.23,347.11,22.67,520.38,39.05"/><path class="cls-1" d="m.51,405.38c166.52-4.91,264.28-9.92,342.24-11.49,76.6-1.87,133.39-.3,186.59,1.08,89.11,3.41,155.61,6.07,228.77,15.43,36.2,4.69,73.02,11.14,114.26,19.7,41.54,8.49,87.51,19.08,148.84,30.37,98.57,18.54,220.2,31.88,377.29,43.2,154.54,11.52,344.52,21.02,521.02,36.48"/><path class="cls-1" d="m.52,396.74c169.97-4.31,270.74-9.55,350.24-11.27,78.23-2.04,135.18-.57,188.41,1.06,88.88,3.8,155.13,7.67,228.34,17.93,36.17,5.14,72.93,11.98,113.82,20.77,41.18,8.72,86.49,19.41,146.66,30.63,96.76,18.4,215.53,31.23,370.64,41.82,152.61,10.79,341.55,19.35,520.9,33.85"/><path class="cls-1" d="m.52,388.09c173.34-3.67,277.21-9.03,358.35-10.83,79.99-2.14,137.26-.73,190.63,1.18,88.86,4.23,154.94,9.28,228.21,20.36,36.16,5.57,72.86,12.75,113.39,21.74,40.83,8.93,85.49,19.67,144.5,30.79,94.95,18.22,210.85,30.53,363.86,40.38,150.56,10.05,338.23,17.65,520.05,31.16"/><path class="cls-1" d="m.53,379.45c176.61-2.95,283.64-8.37,366.56-10.18,81.86-2.18,139.6-.77,193.23,1.43,89.05,4.7,155.02,10.86,228.37,22.72,36.15,5.96,72.79,13.46,112.97,22.62,40.48,9.1,84.5,19.87,142.37,30.88,93.17,18.01,206.18,29.77,356.97,38.87,148.39,9.31,334.57,15.95,518.51,28.43"/><path class="cls-1" d="m.53,370.8c179.76-2.19,290.03-7.56,374.83-9.32,83.84-2.16,142.2-.71,196.19,1.81,89.43,5.19,155.35,12.43,228.79,25,36.15,6.32,72.74,14.1,112.58,23.4,40.14,9.25,83.54,20.02,140.28,30.88,91.4,17.75,201.53,28.98,350.01,37.33,146.12,8.55,330.59,14.23,516.31,25.68"/><path class="cls-1" d="m.54,362.16c182.79-1.36,296.36-6.62,383.12-8.28,85.92-2.07,145.02-.54,199.48,2.31,89.99,5.72,155.92,13.98,229.47,27.21,36.16,6.65,72.69,14.68,112.2,24.09,39.81,9.35,82.6,20.1,138.23,30.8,89.67,17.46,196.93,28.15,342.99,35.75,143.76,7.81,326.32,12.52,513.48,22.9"/><path class="cls-1" d="m.55,353.52c185.68-.48,302.59-5.55,391.4-7.05,88.08-1.92,148.07-.28,203.1,2.92,90.74,6.27,156.73,15.51,230.39,29.33,36.17,6.95,72.65,15.19,111.84,24.69,39.49,9.44,81.69,20.12,136.23,30.64,87.97,17.15,192.38,27.29,335.94,34.14,141.32,7.06,321.78,10.81,510.05,20.12"/><path class="cls-1" d="m.55,344.88c188.42.45,308.7-4.36,399.64-5.65,90.33-1.72,151.31.08,207,3.63,91.65,6.82,157.75,17.01,231.55,31.36,36.2,7.22,72.63,15.64,111.51,25.18,39.18,9.48,80.81,20.09,134.3,30.41,86.31,16.79,187.9,26.41,328.89,32.51,138.8,6.32,316.99,9.12,506.06,17.34"/><path class="cls-1" d="m.56,336.23c190.99,1.42,314.68-3.07,407.82-4.09,92.64-1.47,154.74.52,211.18,4.45,92.72,7.42,158.98,18.48,232.71,33.34,74.53,14.55,140.79,35.1,243.83,55.65,84.69,16.42,183.51,25.5,321.86,30.86,136.23,5.59,311.98,7.46,501.55,14.57"/><path class="cls-1" d="m.56,327.59c193.4,2.43,320.49-1.67,415.88-2.38,95.02-1.17,158.34,1.05,215.61,5.35,93.94,8.01,160.4,19.91,234.28,35.18,74.58,14.99,140.67,35.52,241.74,55.59,83.14,16.02,179.23,24.57,314.88,29.22,133.6,4.87,306.76,5.82,496.53,11.83"/><path class="cls-1" d="m.56,318.95c195.62,3.48,326.12-.18,423.82-.53,97.45-.83,162.09,1.65,220.27,6.33,95.3,8.63,162.01,21.3,236.05,36.91,74.63,15.36,140.57,35.8,239.76,55.36,81.64,15.59,175.06,23.63,307.98,27.57,130.93,4.17,301.35,4.23,491.06,9.13"/><path class="cls-1" d="m.57,310.3c197.64,4.56,331.55,1.4,431.59,1.45,99.92-.44,165.97,2.32,225.14,7.39,96.79,9.25,163.78,22.65,237.98,38.55,74.7,15.68,140.49,35.95,237.9,54.97,80.21,15.14,171.02,22.69,301.17,25.95,128.23,3.49,295.78,2.67,485.15,6.47"/><path class="cls-1" d="m.57,301.66c199.45,5.66,336.74,3.07,439.16,3.56,102.43-.01,169.98,3.06,230.19,8.52,98.41,9.88,165.71,23.95,240.09,40.06,74.76,15.93,140.43,35.96,236.15,54.44,78.85,14.67,167.14,21.75,294.49,24.34,125.51,2.83,290.08,1.16,478.85,3.87"/><path class="cls-1" d="m.57,293.02c201.03,6.79,341.68,4.8,446.49,5.76,104.96.45,174.08,3.86,235.41,9.71,100.14,10.51,167.78,25.19,242.34,41.47,74.84,16.11,140.41,35.85,234.54,53.74,77.57,14.19,163.42,20.82,287.97,22.77,122.78,2.2,284.25-.28,472.18,1.33"/><path class="cls-1" d="m.58,284.38c202.39,7.94,346.34,6.6,453.57,8.07,107.51.95,178.28,4.71,240.77,10.95,101.97,11.15,169.98,26.39,244.72,42.76,74.92,16.23,140.4,35.6,233.07,52.9,76.37,13.69,159.88,19.88,281.61,21.23,120.04,1.59,278.32-1.66,465.18-1.12"/><path class="cls-1" d="m.58,275.73c203.49,9.11,350.71,8.46,460.35,10.46,110.06,1.48,182.54,5.6,246.25,12.24,103.9,11.78,172.3,27.52,247.23,43.92,75,16.29,140.43,35.22,231.75,51.91,75.27,13.18,156.53,18.97,275.47,19.74,117.32,1.02,272.32-2.97,457.89-3.49"/><path class="cls-1" d="m.58,267.09c204.34,10.28,354.75,10.37,466.8,12.93,112.61,2.04,186.86,6.55,251.83,13.57,105.92,12.4,174.73,28.58,249.84,44.95,75.08,16.29,140.49,34.71,230.58,50.77,74.27,12.66,153.4,18.07,269.55,18.3,114.62.49,266.27-4.2,450.33-5.76"/><path class="cls-1" d="m.58,258.45c204.91,11.47,358.44,12.32,472.89,15.47,115.15,2.62,191.22,7.54,257.48,14.94,54.96,6.41,98.01,13.94,138.41,21.72,40.1,7.82,77.53,15.88,114.14,24.13,75.17,16.22,140.57,34.06,229.59,49.49,73.37,12.13,150.49,17.2,263.88,16.93,111.95,0,260.18-5.34,442.53-7.91"/><path class="cls-1" d="m.58,249.81c205.2,12.67,361.77,14.31,478.59,18.06,117.67,3.22,195.59,8.56,263.2,16.32,56.04,6.7,99.74,14.47,140.54,22.39,40.5,7.95,78.1,16.06,114.8,24.23,75.26,16.09,140.68,33.29,228.76,48.08,72.58,11.59,147.82,16.35,258.5,15.63,109.32-.45,254.08-6.39,434.54-9.94"/><path class="cls-1" d="m.58,241.16c205.2,13.86,364.71,16.32,483.87,20.7,120.16,3.85,199.97,9.6,268.94,17.73,57.16,7,101.52,14.98,142.73,23.01,40.91,8.06,78.68,16.17,115.47,24.23,75.34,15.9,140.83,32.38,228.12,46.53,71.91,11.04,145.41,15.54,253.42,14.41,106.75-.85,247.99-7.34,426.38-11.84"/><path class="cls-1" d="m.58,232.52c204.89,15.04,367.23,18.36,488.69,23.37,122.61,4.49,204.34,10.67,274.7,19.16,58.3,7.28,103.33,15.46,144.97,23.57,41.33,8.15,79.27,16.22,116.15,24.14,75.43,15.64,141,31.35,227.67,44.84,71.36,10.5,143.28,14.77,248.67,13.28,104.23-1.21,241.94-8.18,418.09-13.6"/><path class="cls-1" d="m.58,223.88c204.25,16.22,369.31,20.41,493.02,26.07,125.02,5.14,208.69,11.75,280.45,20.58,59.46,7.55,105.18,15.91,147.24,24.08,41.76,8.2,79.85,16.22,116.83,23.97,75.52,15.31,141.21,30.18,227.42,43.02,70.94,9.95,141.43,14.05,244.28,12.25,101.79-1.51,235.93-8.9,409.7-15.2"/><path class="cls-1" d="m.58,215.24c203.29,17.39,370.93,22.46,496.83,28.79,127.37,5.8,212.99,12.85,286.17,22.01,60.63,7.81,107.05,16.32,149.54,24.52,42.19,8.23,80.44,16.15,117.51,23.69,75.6,14.93,141.45,28.88,227.38,41.08,70.66,9.41,139.88,13.37,240.27,11.33,99.42-1.75,230.01-9.51,401.25-16.64"/><path class="cls-1" d="m.57,206.59c201.98,18.53,372.07,24.5,500.09,31.49,129.65,6.47,217.23,13.95,291.83,23.43,61.81,8.06,108.94,16.7,151.86,24.89,42.62,8.24,81.02,16.03,118.19,23.33,75.69,14.47,141.72,27.46,227.56,39.01,70.52,8.87,138.66,12.75,236.67,10.52,97.15-1.93,224.18-9.99,392.76-17.9"/><path class="cls-1" d="m.57,197.95c200.31,19.66,372.71,26.55,502.77,34.21,131.86,7.14,221.39,15.06,297.42,24.82,62.99,8.29,110.84,17.04,154.19,25.21,43.05,8.21,81.59,15.84,118.86,22.86,75.77,13.95,142.03,25.9,227.97,36.82,70.53,8.33,137.77,12.19,233.5,9.83,94.99-2.05,218.48-10.32,384.26-18.98"/><path class="cls-1" d="m.56,189.31c198.28,20.77,372.81,28.57,504.83,36.9,133.98,7.81,225.46,16.16,302.92,26.19,64.17,8.5,112.74,17.34,156.51,25.45,43.47,8.15,82.15,15.58,119.52,22.31,75.84,13.37,142.38,24.22,228.61,34.51,70.7,7.81,137.22,11.7,230.79,9.27,92.93-2.1,212.91-10.52,375.8-19.86"/><path class="cls-1" d="m.56,180.67c195.86,21.84,372.36,30.56,506.24,39.56,136.02,8.49,229.42,17.25,308.3,27.54,128.83,17.7,202.09,34.8,278.99,47.26,75.92,12.72,142.76,22.4,229.49,32.09,71.02,7.28,137.05,11.27,228.57,8.85,91-2.08,207.51-10.56,367.41-20.52"/><path class="cls-1" d="m.55,172.02c193.05,22.89,371.33,32.53,506.97,42.18,137.94,9.16,233.26,18.33,313.53,28.84,131.19,18.07,204.86,34.89,281.9,46.59,75.98,12,143.18,20.46,230.62,29.54,71.52,6.78,137.25,10.92,226.86,8.58,89.2-1.99,202.29-10.46,359.11-20.98"/><path class="cls-1" d="m.55,163.38c92.89,12.09,187.21,20.54,273.37,27.46,86.51,6.88,164.85,12.22,233.75,17.3,137.81,9.88,238.71,19.32,318.48,30.11,133.54,18.39,207.59,34.85,284.77,45.73,76.04,11.22,143.64,18.39,232.02,26.9,72.18,6.29,137.85,10.65,225.68,8.47,87.55-1.82,197.27-10.18,350.95-21.2"/><path class="cls-1" d="m.54,154.74c90.99,12.57,184.83,21.5,271.09,28.84,86.61,7.31,165.63,13.04,235.31,18.43,139.45,10.52,242.3,20.37,323.37,31.31,135.85,18.68,210.26,34.71,287.56,44.7,76.09,10.37,144.13,16.2,233.68,24.14,73.03,5.81,138.86,10.46,225.07,8.52,86.05-1.57,192.48-9.73,342.94-21.18"/><path class="cls-1" d="m.53,146.09c88.87,13.02,182.08,22.42,268.3,30.18,86.6,7.73,166.2,13.83,236.6,19.54,140.96,11.14,245.72,21.38,328.06,32.46,136.37,19.17,214.56,34.2,290.39,43.45,74.33,9.71,146.3,13.64,235.5,21.29,74.07,5.35,140.3,10.36,225.05,8.75,84.71-1.24,187.95-9.1,335.14-20.9"/><path class="cls-1" d="m.52,137.45c86.54,13.45,178.94,23.29,265,31.46,86.45,8.14,166.55,14.61,237.6,20.62,142.32,11.75,248.95,22.36,332.51,33.54,138.72,19.34,216.97,33.82,293.01,42.03,74.49,8.72,146.77,11.19,237.74,18.32,75.3,4.91,142.18,10.35,225.64,9.15,83.55-.82,183.68-8.29,327.57-20.37"/><path class="cls-1" d="m.51,128.81c83.97,13.85,175.41,24.13,261.16,32.69,86.17,8.53,166.66,15.36,238.29,21.66,143.54,12.34,251.97,23.29,336.72,34.55,141.01,19.47,219.27,33.3,295.51,40.41,74.65,7.67,147.27,8.61,240.27,15.26,76.73,4.5,144.52,10.45,226.87,9.75,82.57-.31,179.71-7.28,320.25-19.56"/><path class="cls-1" d="m.5,120.16c81.17,14.23,171.45,24.92,256.77,33.86,85.75,8.92,166.53,16.08,238.66,22.67,144.61,12.91,254.77,24.18,340.66,35.48,143.24,19.55,221.47,32.66,297.89,38.59,74.8,6.54,147.8,5.91,243.11,12.09,78.36,4.11,147.33,10.65,228.76,10.54,81.79.29,176.05-6.08,313.24-18.47"/><path class="cls-1" d="m.49,111.52c78.14,14.57,167.08,25.65,251.82,34.95,85.18,9.28,166.15,16.78,238.69,23.63,145.51,13.45,257.33,25.02,344.31,36.32,145.4,19.56,223.53,31.87,300.14,36.55,74.96,5.35,148.38,3.09,246.25,8.83,80.2,3.74,150.63,10.96,231.35,11.54,81.22.99,172.73-4.67,306.55-17.08"/><path class="cls-1" d="m.47,102.88c74.85,14.88,162.27,26.33,246.27,35.98,84.47,9.62,165.51,17.44,238.37,24.55,146.23,13.96,259.63,25.79,347.65,37.07,147.47,19.51,225.46,30.94,302.24,34.31,75.1,4.09,148.99.13,249.72,5.49,82.27,3.41,154.43,11.39,234.65,12.76,80.85,1.79,169.76-3.04,300.23-15.39"/><path class="cls-1" d="m.46,94.23c71.32,15.16,157.02,26.96,240.13,36.92,83.59,9.95,164.59,18.06,237.69,25.41,146.77,14.44,261.67,26.5,350.65,37.71,149.47,19.4,227.25,29.86,304.17,31.85,75.25,2.76,149.64-2.95,253.52,2.05,84.56,3.1,158.75,11.94,238.69,14.2,80.72,2.7,167.18-1.19,294.3-13.38"/><path class="cls-1" d="m.44,85.59c67.52,15.4,151.3,27.51,233.36,37.78,82.56,10.25,163.39,18.64,236.62,26.21,147.12,14.88,263.41,27.15,353.29,38.25,151.36,19.22,228.86,28.63,305.93,29.16,75.38,1.37,150.33-6.15,257.65-1.47,87.08,2.82,163.61,12.61,243.5,15.87,80.82,3.71,164.99.88,288.8-11.05"/><path class="cls-1" d="m.43,76.95c63.47,15.6,145.12,28,225.95,38.54,81.36,10.52,161.89,19.18,235.16,26.95,147.27,15.29,264.85,27.73,355.56,38.67,153.15,18.96,230.31,27.25,307.51,26.25,75.51-.1,151.06-9.49,262.14-5.07,89.83,2.58,169.02,13.41,249.11,17.78,81.17,4.83,163.23,3.2,283.76-8.37"/><path class="cls-1" d="m.41,68.3c59.14,15.76,138.45,28.43,217.9,39.22,79.98,10.78,160.1,19.67,233.29,27.63,147.21,15.66,265.96,28.22,357.43,38.96,154.82,18.64,231.56,25.71,308.87,23.12,75.64-1.63,151.84-12.94,266.98-8.76,92.83,2.38,175,14.35,255.53,19.94,81.77,6.07,161.91,5.76,279.22-5.35"/><path class="cls-1" d="m.39,59.66c54.54,15.89,131.29,28.78,209.16,39.79,78.43,11,157.98,20.11,231,28.23,146.93,15.99,266.74,28.64,358.87,39.13,156.37,18.23,232.62,24.01,310.03,19.74,75.75-3.24,152.65-16.53,272.18-12.52,96.08,2.21,181.55,15.43,262.8,22.36,82.64,7.42,161.06,8.56,275.2-1.97"/><path class="cls-1" d="m.37,51.01c49.65,15.96,123.62,29.04,199.74,40.24,76.7,11.19,155.54,20.5,228.26,28.75,146.42,16.27,267.17,28.96,359.87,39.16,157.78,17.76,233.47,22.15,310.95,16.13,75.86-4.91,153.51-20.23,277.75-16.36,99.59,2.09,188.71,16.66,270.94,25.05,83.79,8.9,160.7,11.62,271.74,1.78"/><path class="cls-1" d="m.35,42.37c44.48,15.99,115.44,29.23,189.61,40.59,74.77,11.35,152.77,20.83,225.07,29.19,145.67,16.49,267.23,29.18,360.41,39.04,159.05,17.19,234.09,20.11,311.63,12.27,75.95-6.65,154.41-24.07,283.7-20.27,103.36,2.01,196.47,18.03,279.98,28,85.22,10.5,160.84,14.94,268.88,5.91"/></svg>