<svg xmlns="http://www.w3.org/2000/svg" xmlns:xlink="http://www.w3.org/1999/xlink" width="1097" zoomAndPan="magnify" viewBox="0 0 822.75 299.999988" height="400" preserveAspectRatio="xMidYMid meet" version="1.0"><defs><filter x="0%" y="0%" width="100%" height="100%" id="48f22644a1"><feColorMatrix values="0 0 0 0 1 0 0 0 0 1 0 0 0 0 1 0 0 0 1 0" color-interpolation-filters="sRGB"/></filter><clipPath id="7257438f6d"><path d="M 0 0.046875 L 822.5 0.046875 L 822.5 299.953125 L 0 299.953125 Z M 0 0.046875 " clip-rule="nonzero"/></clipPath><mask id="b4a16fdde0"><g filter="url(#48f22644a1)"><rect x="-82.275" width="987.3" fill="#000000" y="-29.999999" height="359.999986" fill-opacity="0.25"/></g></mask><clipPath id="b0adb391d1"><path d="M 0 209 L 822.5 209 L 822.5 294 L 0 294 Z M 0 209 " clip-rule="nonzero"/></clipPath><clipPath id="a6a2644db5"><path d="M 0 204 L 822.5 204 L 822.5 290 L 0 290 Z M 0 204 " clip-rule="nonzero"/></clipPath><clipPath id="06475fc1e6"><path d="M 0 198 L 822.5 198 L 822.5 286 L 0 286 Z M 0 198 " clip-rule="nonzero"/></clipPath><clipPath id="7ebd81f88a"><path d="M 0 193 L 822.5 193 L 822.5 282 L 0 282 Z M 0 193 " clip-rule="nonzero"/></clipPath><clipPath id="5b93bfd2b5"><path d="M 0 188 L 822.5 188 L 822.5 279 L 0 279 Z M 0 188 " clip-rule="nonzero"/></clipPath><clipPath id="b4b588ae30"><path d="M 0 184 L 822.5 184 L 822.5 275 L 0 275 Z M 0 184 " clip-rule="nonzero"/></clipPath><clipPath id="7df69c89d4"><path d="M 0 179 L 822.5 179 L 822.5 271 L 0 271 Z M 0 179 " clip-rule="nonzero"/></clipPath><clipPath id="f6b133628f"><path d="M 0 175 L 822.5 175 L 822.5 268 L 0 268 Z M 0 175 " clip-rule="nonzero"/></clipPath><clipPath id="904354a53b"><path d="M 0 171 L 822.5 171 L 822.5 264 L 0 264 Z M 0 171 " clip-rule="nonzero"/></clipPath><clipPath id="efb52570eb"><path d="M 0 167 L 822.5 167 L 822.5 260 L 0 260 Z M 0 167 " clip-rule="nonzero"/></clipPath><clipPath id="e48185bc9a"><path d="M 0 163 L 822.5 163 L 822.5 257 L 0 257 Z M 0 163 " clip-rule="nonzero"/></clipPath><clipPath id="6468ef4d94"><path d="M 0 160 L 822.5 160 L 822.5 253 L 0 253 Z M 0 160 " clip-rule="nonzero"/></clipPath><clipPath id="e41e2378bb"><path d="M 0 156 L 822.5 156 L 822.5 249 L 0 249 Z M 0 156 " clip-rule="nonzero"/></clipPath><clipPath id="b4405d9d1f"><path d="M 0 153 L 822.5 153 L 822.5 245 L 0 245 Z M 0 153 " clip-rule="nonzero"/></clipPath><clipPath id="64317bf846"><path d="M 0 150 L 822.5 150 L 822.5 242 L 0 242 Z M 0 150 " clip-rule="nonzero"/></clipPath><clipPath id="4ffa19704d"><path d="M 0 147 L 822.5 147 L 822.5 238 L 0 238 Z M 0 147 " clip-rule="nonzero"/></clipPath><clipPath id="6eac1a78c6"><path d="M 0 144 L 822.5 144 L 822.5 234 L 0 234 Z M 0 144 " clip-rule="nonzero"/></clipPath><clipPath id="3370abdd86"><path d="M 0 141 L 822.5 141 L 822.5 231 L 0 231 Z M 0 141 " clip-rule="nonzero"/></clipPath><clipPath id="4b4d7b3f9d"><path d="M 0 139 L 822.5 139 L 822.5 227 L 0 227 Z M 0 139 " clip-rule="nonzero"/></clipPath><clipPath id="6fcd5e3a1a"><path d="M 0 136 L 822.5 136 L 822.5 223 L 0 223 Z M 0 136 " clip-rule="nonzero"/></clipPath><clipPath id="b1b26bf745"><path d="M 0 133 L 822.5 133 L 822.5 219 L 0 219 Z M 0 133 " clip-rule="nonzero"/></clipPath><clipPath id="f95c62b6d9"><path d="M 0 131 L 822.5 131 L 822.5 216 L 0 216 Z M 0 131 " clip-rule="nonzero"/></clipPath><clipPath id="39595b4f6e"><path d="M 0 129 L 822.5 129 L 822.5 212 L 0 212 Z M 0 129 " clip-rule="nonzero"/></clipPath><clipPath id="77e8109236"><path d="M 0 126 L 822.5 126 L 822.5 208 L 0 208 Z M 0 126 " clip-rule="nonzero"/></clipPath><clipPath id="f63f2d1cb7"><path d="M 0 124 L 822.5 124 L 822.5 205 L 0 205 Z M 0 124 " clip-rule="nonzero"/></clipPath><clipPath id="023c37ea33"><path d="M 0 122 L 822.5 122 L 822.5 201 L 0 201 Z M 0 122 " clip-rule="nonzero"/></clipPath><clipPath id="f443a043a6"><path d="M 0 119 L 822.5 119 L 822.5 198 L 0 198 Z M 0 119 " clip-rule="nonzero"/></clipPath><clipPath id="7682f4b190"><path d="M 0 117 L 822.5 117 L 822.5 196 L 0 196 Z M 0 117 " clip-rule="nonzero"/></clipPath><clipPath id="4ce72e26a4"><path d="M 0 115 L 822.5 115 L 822.5 194 L 0 194 Z M 0 115 " clip-rule="nonzero"/></clipPath><clipPath id="8c7491e732"><path d="M 0 113 L 822.5 113 L 822.5 192 L 0 192 Z M 0 113 " clip-rule="nonzero"/></clipPath><clipPath id="784c5a0625"><path d="M 0 111 L 822.5 111 L 822.5 190 L 0 190 Z M 0 111 " clip-rule="nonzero"/></clipPath><clipPath id="80099528e2"><path d="M 0 108 L 822.5 108 L 822.5 188 L 0 188 Z M 0 108 " clip-rule="nonzero"/></clipPath><clipPath id="bc0be18806"><path d="M 0 104 L 822.5 104 L 822.5 185 L 0 185 Z M 0 104 " clip-rule="nonzero"/></clipPath><clipPath id="3a39753d9e"><path d="M 0 101 L 822.5 101 L 822.5 183 L 0 183 Z M 0 101 " clip-rule="nonzero"/></clipPath><clipPath id="9714eb271c"><path d="M 0 97 L 822.5 97 L 822.5 181 L 0 181 Z M 0 97 " clip-rule="nonzero"/></clipPath><clipPath id="951f9f6893"><path d="M 0 93 L 822.5 93 L 822.5 179 L 0 179 Z M 0 93 " clip-rule="nonzero"/></clipPath><clipPath id="05478d57a2"><path d="M 0 89 L 822.5 89 L 822.5 176 L 0 176 Z M 0 89 " clip-rule="nonzero"/></clipPath><clipPath id="60408b9030"><path d="M 0 86 L 822.5 86 L 822.5 174 L 0 174 Z M 0 86 " clip-rule="nonzero"/></clipPath><clipPath id="4f1d217a0a"><path d="M 0 82 L 822.5 82 L 822.5 171 L 0 171 Z M 0 82 " clip-rule="nonzero"/></clipPath><clipPath id="c36cd0c015"><path d="M 0 78 L 822.5 78 L 822.5 169 L 0 169 Z M 0 78 " clip-rule="nonzero"/></clipPath><clipPath id="d8a9ee07e2"><path d="M 0 75 L 822.5 75 L 822.5 166 L 0 166 Z M 0 75 " clip-rule="nonzero"/></clipPath><clipPath id="6ba67857a3"><path d="M 0 71 L 822.5 71 L 822.5 163 L 0 163 Z M 0 71 " clip-rule="nonzero"/></clipPath><clipPath id="037696417d"><path d="M 0 67 L 822.5 67 L 822.5 160 L 0 160 Z M 0 67 " clip-rule="nonzero"/></clipPath><clipPath id="00a7e68f9d"><path d="M 0 64 L 822.5 64 L 822.5 157 L 0 157 Z M 0 64 " clip-rule="nonzero"/></clipPath><clipPath id="d8d2a0d499"><path d="M 0 60 L 822.5 60 L 822.5 154 L 0 154 Z M 0 60 " clip-rule="nonzero"/></clipPath><clipPath id="a81e0b017a"><path d="M 0 56 L 822.5 56 L 822.5 151 L 0 151 Z M 0 56 " clip-rule="nonzero"/></clipPath><clipPath id="da923d3223"><path d="M 0 52 L 822.5 52 L 822.5 148 L 0 148 Z M 0 52 " clip-rule="nonzero"/></clipPath><clipPath id="d30aabaac0"><path d="M 0 49 L 822.5 49 L 822.5 144 L 0 144 Z M 0 49 " clip-rule="nonzero"/></clipPath><clipPath id="2250050631"><path d="M 0 45 L 822.5 45 L 822.5 140 L 0 140 Z M 0 45 " clip-rule="nonzero"/></clipPath><clipPath id="e8095d5250"><path d="M 0 41 L 822.5 41 L 822.5 136 L 0 136 Z M 0 41 " clip-rule="nonzero"/></clipPath><clipPath id="90f7e61279"><path d="M 0 38 L 822.5 38 L 822.5 132 L 0 132 Z M 0 38 " clip-rule="nonzero"/></clipPath><clipPath id="1161dd9280"><path d="M 0 34 L 822.5 34 L 822.5 128 L 0 128 Z M 0 34 " clip-rule="nonzero"/></clipPath><clipPath id="7fa786af1c"><path d="M 0 30 L 822.5 30 L 822.5 124 L 0 124 Z M 0 30 " clip-rule="nonzero"/></clipPath><clipPath id="246b09c975"><path d="M 0 26 L 822.5 26 L 822.5 119 L 0 119 Z M 0 26 " clip-rule="nonzero"/></clipPath><clipPath id="d3a9858995"><path d="M 0 23 L 822.5 23 L 822.5 115 L 0 115 Z M 0 23 " clip-rule="nonzero"/></clipPath><clipPath id="593be61cfc"><path d="M 0 19 L 822.5 19 L 822.5 110 L 0 110 Z M 0 19 " clip-rule="nonzero"/></clipPath><clipPath id="9d3e14130a"><path d="M 0 15 L 822.5 15 L 822.5 104 L 0 104 Z M 0 15 " clip-rule="nonzero"/></clipPath><clipPath id="05c6aaa845"><path d="M 0 12 L 822.5 12 L 822.5 99 L 0 99 Z M 0 12 " clip-rule="nonzero"/></clipPath><clipPath id="1dc7188383"><rect x="0" width="823" y="0" height="300"/></clipPath></defs><g clip-path="url(#7257438f6d)"><g mask="url(#b4a16fdde0)"><g transform="matrix(1, 0, 0, 1, 0, -0.000000000000013378)"><g clip-path="url(#1dc7188383)"><g clip-path="url(#b0adb391d1)"><path stroke-linecap="butt" transform="matrix(0.428263, 0, 0, 0.428477, 0.117085, 0.045559)" fill="none" stroke-linejoin="miter" d="M 0.556628 535.137515 C 192.894057 575.441939 314.186944 591.122466 413.49789 601.032194 C 512.133872 610.139663 588.778791 613.476333 675.958624 610.677541 C 817.929131 606.848575 963.037308 583.5557 1077.288678 557.199652 C 1194.987837 531.509114 1281.830188 502.737171 1387.179327 503.548547 C 1472.160966 504.296107 1562.177473 528.564457 1654.428659 564.511153 C 1746.114334 599.509724 1840.025566 646.177525 1919.689582 669.81683 " stroke="#031684" stroke-width="1" stroke-opacity="1" stroke-miterlimit="10"/></g><g clip-path="url(#a6a2644db5)"><path stroke-linecap="butt" transform="matrix(0.428263, 0, 0, 0.428477, 0.117085, 0.045559)" fill="none" stroke-linejoin="miter" d="M 0.556628 526.504109 C 195.676003 567.88429 322.979721 583.692449 426.960689 593.146348 C 530.376147 601.834453 610.477977 604.159183 698.469592 600.567248 C 841.990692 595.197579 981.790367 571.494457 1090.751477 544.956077 C 1202.996196 519.101441 1284.41147 490.420664 1387.133722 490.602996 C 1469.953651 490.958542 1559.90631 514.716364 1652.668279 551.03684 C 1744.873859 586.409191 1839.870507 634.344197 1919.680461 661.174307 " stroke="#031684" stroke-width="1" stroke-opacity="1" stroke-miterlimit="10"/></g><g clip-path="url(#06475fc1e6)"><path stroke-linecap="butt" transform="matrix(0.428263, 0, 0, 0.428477, 0.117085, 0.045559)" fill="none" stroke-linejoin="miter" d="M 0.565749 517.861586 C 198.093105 560.372223 330.969837 576.371831 439.255983 585.470183 C 547.131677 593.802742 630.407663 595.206696 719.074242 590.885434 C 863.899664 584.102695 998.463807 559.998443 1102.298837 533.314198 C 1209.262418 507.286347 1285.524249 478.687618 1385.856762 478.222673 C 1466.74301 478.158857 1556.796002 501.360566 1650.26942 537.963656 C 1743.168206 573.618622 1839.460056 622.684084 1919.680461 652.522668 " stroke="#031684" stroke-width="1" stroke-opacity="1" stroke-miterlimit="10"/></g><g clip-path="url(#7ebd81f88a)"><path stroke-linecap="butt" transform="matrix(0.428263, 0, 0, 0.428477, 0.117085, 0.045559)" fill="none" stroke-linejoin="miter" d="M 0.565749 509.209946 C 200.108876 552.860157 338.139051 569.151495 450.411134 577.958116 C 562.39134 586.017178 648.613454 586.609756 737.799937 581.613867 C 883.710775 573.509223 1013.103233 549.058541 1111.985485 522.22843 C 1213.841229 496.06383 1285.186767 467.519801 1383.421419 466.371112 C 1462.565529 465.869699 1552.910397 488.460598 1647.250323 525.264253 C 1741.015618 561.119783 1838.794213 611.178953 1919.680461 643.861912 " stroke="#031684" stroke-width="1" stroke-opacity="1" stroke-miterlimit="10"/></g><g clip-path="url(#5b93bfd2b5)"><path stroke-linecap="butt" transform="matrix(0.428263, 0, 0, 0.428477, 0.117085, 0.045559)" fill="none" stroke-linejoin="miter" d="M 0.565749 500.567423 C 201.759802 545.393674 344.551211 562.040558 460.471749 570.637498 C 576.228106 578.514228 665.131834 578.341013 754.719647 572.761663 C 901.46963 563.462746 1025.799856 538.683867 1119.911754 511.726124 C 1216.832962 485.415658 1283.508478 456.935446 1379.873296 455.075662 C 1457.494177 454.109304 1548.258617 476.062042 1643.638353 512.956863 C 1738.452578 548.930909 1837.872978 599.856154 1919.680461 635.219389 " stroke="#031684" stroke-width="1" stroke-opacity="1" stroke-miterlimit="10"/></g><g clip-path="url(#b4b588ae30)"><path stroke-linecap="butt" transform="matrix(0.428263, 0, 0, 0.428477, 0.117085, 0.045559)" fill="none" stroke-linejoin="miter" d="M 0.583992 491.934017 C 203.073246 537.92719 350.197195 555.020788 469.474311 563.490095 C 588.68758 571.257426 680.035773 570.409584 769.89722 564.283238 C 917.26744 553.881214 1036.635768 528.819721 1126.123249 501.761696 C 1218.274102 475.332715 1280.544108 446.879852 1375.294485 444.290742 C 1451.58368 442.822972 1542.922752 464.091965 1639.488235 501.023253 C 1735.488208 537.015532 1836.741957 588.697454 1919.689582 626.567749 " stroke="#031684" stroke-width="1" stroke-opacity="1" stroke-miterlimit="10"/></g><g clip-path="url(#7df69c89d4)"><path stroke-linecap="butt" transform="matrix(0.428263, 0, 0, 0.428477, 0.117085, 0.045559)" fill="none" stroke-linejoin="miter" d="M 0.583992 483.291494 C 204.030965 530.50629 355.12261 548.083066 477.418822 556.488558 C 599.788004 564.219422 693.361755 562.779002 783.360019 556.160361 C 931.149811 544.782862 1045.629209 519.447872 1130.665575 492.280447 C 1218.228496 465.732951 1276.339263 437.316554 1369.694107 433.979884 C 1444.85228 432.010701 1536.89368 452.541252 1634.809092 489.426956 C 1732.158993 525.391885 1835.373786 577.702852 1919.680461 617.906993 " stroke="#031684" stroke-width="1" stroke-opacity="1" stroke-miterlimit="10"/></g><g clip-path="url(#f6b133628f)"><path stroke-linecap="butt" transform="matrix(0.428263, 0, 0, 0.428477, 0.117085, 0.045559)" fill="none" stroke-linejoin="miter" d="M 0.583992 474.639855 C 204.660324 523.067156 359.327454 541.200044 484.360008 549.632886 C 609.565864 557.3911 705.137143 555.449267 795.171892 548.39303 C 943.171471 536.122106 1052.880514 510.559201 1133.629945 483.300611 C 1216.778235 456.625482 1270.966913 428.245552 1363.163372 424.152205 C 1437.363826 421.636027 1530.24437 441.428134 1629.628285 478.186206 C 1728.44669 514.03262 1833.786708 566.863232 1919.662218 609.26447 " stroke="#031684" stroke-width="1" stroke-opacity="1" stroke-miterlimit="10"/></g><g clip-path="url(#904354a53b)"><path stroke-linecap="butt" transform="matrix(0.428263, 0, 0, 0.428477, 0.117085, 0.045559)" fill="none" stroke-linejoin="miter" d="M 0.583992 465.997332 C 204.979564 515.646255 362.857334 534.408188 490.343474 542.913962 C 618.103248 550.772459 715.45315 548.383913 805.387566 540.963013 C 953.414508 527.88983 1058.444408 502.135476 1135.089327 474.78572 C 1213.996288 448.019425 1264.52739 419.666845 1355.757008 414.789472 C 1429.191287 411.744532 1523.020429 430.73438 1624.009665 467.301003 C 1724.43339 502.955969 1832.008086 556.187711 1919.662218 600.621948 " stroke="#031684" stroke-width="1" stroke-opacity="1" stroke-miterlimit="10"/></g><g clip-path="url(#efb52570eb)"><path stroke-linecap="butt" transform="matrix(0.428263, 0, 0, 0.428477, 0.117085, 0.045559)" fill="none" stroke-linejoin="miter" d="M 0.583992 457.363925 C 204.988685 508.234472 365.730493 527.671032 495.369221 536.322671 C 625.400159 544.354383 724.328017 541.582941 814.070889 533.84296 C 961.933651 520.086033 1062.39386 494.149347 1135.107569 466.726658 C 1209.955624 439.869198 1257.057179 411.516618 1347.557106 405.846101 C 1420.389389 402.254167 1515.276584 420.423521 1617.989714 456.716648 C 1720.119091 492.116349 1830.074405 545.658054 1919.680461 591.979425 " stroke="#031684" stroke-width="1" stroke-opacity="1" stroke-miterlimit="10"/></g><g clip-path="url(#e48185bc9a)"><path stroke-linecap="butt" transform="matrix(0.428263, 0, 0, 0.428477, 0.117085, 0.045559)" fill="none" stroke-linejoin="miter" d="M 0.583992 448.721402 C 204.70593 500.804455 367.95605 520.988575 499.491975 529.831662 C 631.511321 538.091289 731.798228 535.009883 821.258346 527.005521 C 968.783625 512.656015 1064.792719 486.573465 1133.739398 459.08696 C 1204.71097 432.138334 1248.620126 403.803986 1338.581906 397.340327 C 1410.976375 393.174048 1507.021954 410.486443 1611.559312 446.460489 C 1715.512917 481.54111 1827.940059 535.28338 1919.67134 583.327785 " stroke="#031684" stroke-width="1" stroke-opacity="1" stroke-miterlimit="10"/></g><g clip-path="url(#6468ef4d94)"><path stroke-linecap="butt" transform="matrix(0.428263, 0, 0, 0.428477, 0.117085, 0.045559)" fill="none" stroke-linejoin="miter" d="M 0.583992 440.069763 C 204.14954 493.374437 369.579613 514.342584 502.7391 523.440936 C 636.482341 531.983176 737.964117 528.655623 827.022905 520.441579 C 974.0374 505.581545 1065.695712 479.362246 1131.057784 451.830158 C 1198.326174 424.808599 1239.289203 396.474252 1328.9135 389.199217 C 1401.034335 384.449476 1498.32951 400.914029 1604.782307 436.486945 C 1710.64223 471.193785 1825.650653 525.027222 1919.662218 574.667029 " stroke="#031684" stroke-width="1" stroke-opacity="1" stroke-miterlimit="10"/></g><g clip-path="url(#e41e2378bb)"><path stroke-linecap="butt" transform="matrix(0.428263, 0, 0, 0.428477, 0.117085, 0.045559)" fill="none" stroke-linejoin="miter" d="M 0.583992 431.42724 C 203.319517 485.94442 370.60118 507.742176 505.137959 517.150492 C 640.349703 526.030046 742.807442 522.538394 831.401051 514.151135 C 977.758825 498.871738 1065.194049 472.552157 1127.135695 444.974486 C 1190.883325 417.879994 1229.146498 389.518297 1318.606615 381.450119 C 1390.608875 376.116917 1489.235736 391.678928 1597.686062 426.823364 C 1705.543514 461.092609 1823.206188 514.916929 1919.67134 566.024506 " stroke="#031684" stroke-width="1" stroke-opacity="1" stroke-miterlimit="10"/></g><g clip-path="url(#b4405d9d1f)"><path stroke-linecap="butt" transform="matrix(0.428263, 0, 0, 0.428477, 0.117085, 0.045559)" fill="none" stroke-linejoin="miter" d="M 0.583992 422.793834 C 202.243223 478.514403 371.057237 501.169118 506.734159 510.951214 C 643.159013 520.231898 746.428533 516.62173 834.447511 508.106839 C 980.011746 492.490129 1063.333337 466.079381 1122.036979 438.47436 C 1182.437152 411.316053 1218.228496 382.963472 1307.715977 374.065685 C 1379.7456 368.149021 1479.777116 382.80849 1590.29794 417.442398 C 1700.216769 451.219347 1820.634028 504.970734 1919.662218 557.381983 " stroke="#031684" stroke-width="1" stroke-opacity="1" stroke-miterlimit="10"/></g><g clip-path="url(#64317bf846)"><path stroke-linecap="butt" transform="matrix(0.428263, 0, 0, 0.428477, 0.117085, 0.045559)" fill="none" stroke-linejoin="miter" d="M 0.565749 414.151311 C 200.902415 471.038803 370.956904 494.62341 507.527698 504.815752 C 644.937635 514.543149 748.863877 510.869165 836.217012 502.290458 C 980.841769 486.418483 1060.168303 459.953036 1115.816363 432.311549 C 1173.060623 405.098541 1206.617288 376.718611 1296.287191 367.027681 C 1368.490116 360.509323 1469.981014 374.248017 1582.636185 408.325813 C 1694.68936 441.573999 1817.897686 495.143055 1919.643976 548.748577 " stroke="#031684" stroke-width="1" stroke-opacity="1" stroke-miterlimit="10"/></g><g clip-path="url(#4ffa19704d)"><path stroke-linecap="butt" transform="matrix(0.428263, 0, 0, 0.428477, 0.117085, 0.045559)" fill="none" stroke-linejoin="miter" d="M 0.565749 405.499671 C 199.351822 463.554087 370.345788 488.077701 507.591545 498.744106 C 645.740295 508.945565 750.140836 505.280698 836.782522 496.656408 C 980.330985 480.611218 1055.790157 454.091071 1108.57418 426.431351 C 1162.826706 399.181878 1194.385842 370.783714 1284.420591 360.281408 C 1356.924514 353.170471 1459.938642 365.979274 1574.782885 399.464492 C 1689.006891 432.110984 1815.070134 485.415658 1919.643976 540.078704 " stroke="#031684" stroke-width="1" stroke-opacity="1" stroke-miterlimit="10"/></g><g clip-path="url(#6eac1a78c6)"><path stroke-linecap="butt" transform="matrix(0.428263, 0, 0, 0.428477, 0.117085, 0.045559)" fill="none" stroke-linejoin="miter" d="M 0.565749 396.857148 C 197.5732 456.032904 369.242131 481.550226 506.943945 492.708927 C 645.621721 503.457381 750.33238 499.847213 836.189648 491.23204 C 978.552364 475.068334 1050.280989 448.539071 1100.346914 420.870234 C 1151.808372 393.566061 1181.598007 365.140548 1272.14354 353.863332 C 1345.067035 346.159817 1449.649999 358.029611 1566.7198 390.867552 C 1683.178484 422.875883 1812.133127 475.861477 1919.625734 531.454414 " stroke="#031684" stroke-width="1" stroke-opacity="1" stroke-miterlimit="10"/></g><g clip-path="url(#3370abdd86)"><path stroke-linecap="butt" transform="matrix(0.428263, 0, 0, 0.428477, 0.117085, 0.045559)" fill="none" stroke-linejoin="miter" d="M 0.556628 388.223742 C 195.575671 448.502604 367.645931 475.031868 505.594016 486.728447 C 644.591032 498.051246 749.456751 494.54136 834.456632 485.97177 C 975.524146 469.780715 1043.659044 443.242335 1091.198413 415.573498 C 1140.042104 388.241975 1168.299389 359.779996 1259.501643 347.709637 C 1332.981528 339.422661 1439.16069 350.353446 1558.501655 382.48941 C 1677.222381 413.83223 1809.086667 466.389345 1919.616613 522.802775 " stroke="#031684" stroke-width="1" stroke-opacity="1" stroke-miterlimit="10"/></g><g clip-path="url(#4b4d7b3f9d)"><path stroke-linecap="butt" transform="matrix(0.428263, 0, 0, 0.428477, 0.117085, 0.045559)" fill="none" stroke-linejoin="miter" d="M 0.556628 379.581219 C 193.395719 440.926722 365.611918 468.504393 503.596487 480.784433 C 642.712078 492.708927 747.596039 489.36314 831.692927 480.866482 C 971.346665 464.711893 1036.01553 438.18263 1081.229009 410.513793 C 1127.637357 383.164037 1154.590319 354.656475 1246.586113 341.820323 C 1320.740961 332.940768 1428.552807 342.932546 1550.174056 374.348299 C 1671.156825 404.980026 1805.967238 457.063078 1919.616613 514.151135 " stroke="#031684" stroke-width="1" stroke-opacity="1" stroke-miterlimit="10"/></g><g clip-path="url(#6fcd5e3a1a)"><path stroke-linecap="butt" transform="matrix(0.428263, 0, 0, 0.428477, 0.117085, 0.045559)" fill="none" stroke-linejoin="miter" d="M 0.547507 370.92958 C 191.033344 433.314373 363.130968 461.940451 500.978721 474.831303 C 640.012221 487.412191 744.786728 484.257852 827.907655 475.888827 C 966.083768 459.843637 1027.43254 433.332606 1070.466067 405.682003 C 1114.630615 378.295781 1140.498161 349.779102 1233.442553 336.16804 C 1308.372699 326.714141 1417.817228 335.757793 1541.737004 366.41687 C 1665.018299 396.310153 1802.783961 447.81886 1919.607492 505.499496 " stroke="#031684" stroke-width="1" stroke-opacity="1" stroke-miterlimit="10"/></g><g clip-path="url(#b1b26bf745)"><path stroke-linecap="butt" transform="matrix(0.428263, 0, 0, 0.428477, 0.117085, 0.045559)" fill="none" stroke-linejoin="miter" d="M 0.547507 362.287057 C 188.497668 425.656441 360.25781 455.367393 497.777201 468.905522 C 636.537068 482.170154 741.074425 479.261963 823.192027 471.04792 C 959.781062 455.157712 1017.946557 428.701381 1059.02816 401.059894 C 1101.131332 373.673672 1126.141491 345.11141 1220.143935 330.761905 C 1295.949709 320.733661 1407.063407 328.838305 1533.281709 358.713355 C 1658.85241 387.831729 1799.536836 438.720508 1919.616613 496.856973 " stroke="#031684" stroke-width="1" stroke-opacity="1" stroke-miterlimit="10"/></g><g clip-path="url(#f95c62b6d9)"><path stroke-linecap="butt" transform="matrix(0.428263, 0, 0, 0.428477, 0.117085, 0.045559)" fill="none" stroke-linejoin="miter" d="M 0.538386 353.65365 C 185.797811 417.97116 356.992443 448.766985 494.019293 462.979742 C 632.341344 476.946351 736.513857 474.329891 817.573406 466.298179 C 952.511516 450.635885 1007.648792 424.234254 1046.933532 396.611001 C 1087.157749 369.206545 1111.53855 340.607817 1206.708499 325.538101 C 1283.490235 314.962862 1396.245738 322.128498 1524.771688 351.192172 C 1652.631794 379.508286 1796.244106 429.713322 1919.607492 488.223567 " stroke="#031684" stroke-width="1" stroke-opacity="1" stroke-miterlimit="10"/></g><g clip-path="url(#39595b4f6e)"><path stroke-linecap="butt" transform="matrix(0.428263, 0, 0, 0.428477, 0.117085, 0.045559)" fill="none" stroke-linejoin="miter" d="M 0.538386 345.002011 C 182.97938 410.222062 353.371351 442.120995 489.741479 457.026612 C 627.452414 471.74078 731.141507 469.452518 811.10652 461.630487 C 944.329855 446.250808 996.593974 419.912993 1034.273393 392.317089 C 1072.810199 364.92175 1096.780549 336.277439 1193.236579 320.496629 C 1271.10373 309.374395 1385.501038 315.628373 1516.279909 343.844205 C 1646.402058 371.339826 1792.905769 420.788185 1919.607492 479.571927 " stroke="#031684" stroke-width="1" stroke-opacity="1" stroke-miterlimit="10"/></g><g clip-path="url(#77e8109236)"><path stroke-linecap="butt" transform="matrix(0.428263, 0, 0, 0.428477, 0.117085, 0.045559)" fill="none" stroke-linejoin="miter" d="M 0.529265 336.359488 C 179.996768 402.418265 349.403656 435.438538 484.962003 451.064365 C 621.906763 466.516977 725.012102 464.602494 803.846094 457.026612 C 935.299929 441.993362 984.827706 415.719363 1021.093349 388.169042 C 1058.134289 360.773704 1081.913095 332.102043 1179.746416 315.628373 C 1258.762831 303.977377 1374.783701 309.319696 1507.806372 336.669452 C 1640.163199 363.317231 1789.530948 411.981563 1919.589249 470.911171 " stroke="#031684" stroke-width="1" stroke-opacity="1" stroke-miterlimit="10"/></g><g clip-path="url(#f63f2d1cb7)"><path stroke-linecap="butt" transform="matrix(0.428263, 0, 0, 0.428477, 0.117085, 0.045559)" fill="none" stroke-linejoin="miter" d="M 0.529265 327.716965 C 176.895581 394.568885 345.125843 428.701381 479.72647 445.056535 C 615.759116 461.30229 718.171249 459.77982 795.87422 452.477436 C 925.503827 437.827083 972.459444 411.653366 1007.493733 384.139512 C 1043.221229 356.744173 1067.027398 328.017812 1166.347465 310.924215 C 1246.586113 298.76269 1364.203182 303.211584 1499.442289 329.667914 C 1633.988189 355.458734 1786.147006 403.266108 1919.589249 462.268648 " stroke="#031684" stroke-width="1" stroke-opacity="1" stroke-miterlimit="10"/></g><g clip-path="url(#023c37ea33)"><path stroke-linecap="butt" transform="matrix(0.428263, 0, 0, 0.428477, 0.117085, 0.045559)" fill="none" stroke-linejoin="miter" d="M 0.520144 319.074442 C 173.703183 386.637456 340.556153 421.891292 474.071365 439.012239 C 609.045959 456.051137 710.682795 454.94803 787.200018 447.955609 C 914.978035 433.751969 959.516549 407.660302 993.511029 380.201147 C 1028.116625 352.805808 1052.178186 324.061214 1153.057968 306.329456 C 1234.600938 293.675635 1353.7686 297.249337 1491.160296 322.821359 C 1627.849664 347.736986 1782.763064 394.650935 1919.580128 453.626125 " stroke="#031684" stroke-width="1" stroke-opacity="1" stroke-miterlimit="10"/></g><g clip-path="url(#f443a043a6)"><path stroke-linecap="butt" transform="matrix(0.428263, 0, 0, 0.428477, 0.117085, 0.045559)" fill="none" stroke-linejoin="miter" d="M 0.511023 310.431919 C 170.39221 378.660444 335.712829 415.026503 467.996687 432.913243 C 601.785533 450.763518 702.555861 450.11624 777.896458 443.452016 C 903.786399 429.731555 946.081114 403.731054 979.227328 376.317482 C 1012.902568 348.949492 1037.429307 320.159316 1139.960014 301.844096 C 1222.871155 288.716213 1343.552926 291.442072 1483.042483 316.102435 C 1621.811471 340.142871 1779.388243 386.108694 1919.580128 444.983602 " stroke="#031684" stroke-width="1" stroke-opacity="1" stroke-miterlimit="10"/></g><g clip-path="url(#7682f4b190)"><path stroke-linecap="butt" transform="matrix(0.428263, 0, 0, 0.428477, 0.117085, 0.045559)" fill="none" stroke-linejoin="miter" d="M 0.511023 301.789396 C 167.008268 370.619616 330.632355 408.088781 461.593649 426.750432 C 594.069051 445.421199 693.899902 445.28445 768.045629 438.939306 C 892.038374 425.738491 932.253469 399.856505 964.73384 372.497632 C 997.661147 345.147876 1022.86285 316.321233 1127.108331 297.449902 C 1211.442369 283.884423 1333.583523 285.780672 1475.088851 309.529377 C 1615.882731 332.676387 1776.031665 377.666736 1919.580128 436.34108 " stroke="#031684" stroke-width="1" stroke-opacity="1" stroke-miterlimit="10"/></g><g clip-path="url(#4ce72e26a4)"><path stroke-linecap="butt" transform="matrix(0.428263, 0, 0, 0.428477, 0.117085, 0.045559)" fill="none" stroke-linejoin="miter" d="M 0.501901 293.137757 C 163.551357 362.478505 325.323853 401.059894 454.844007 420.496454 C 585.896512 439.99683 684.705795 440.361494 757.656653 434.399247 C 879.733959 421.772776 918.033616 396.000189 950.039687 368.696016 C 982.419726 341.37361 1008.524422 312.519617 1114.539404 293.119524 C 1200.351066 279.143798 1323.878632 280.228672 1467.335884 303.056602 C 1610.054324 325.310186 1772.70245 369.288594 1919.571007 427.698557 " stroke="#031684" stroke-width="1" stroke-opacity="1" stroke-miterlimit="10"/></g><g clip-path="url(#8c7491e732)"><path stroke-linecap="butt" transform="matrix(0.428263, 0, 0, 0.428477, 0.117085, 0.045559)" fill="none" stroke-linejoin="miter" d="M 0.49278 284.50435 C 160.021477 354.291811 319.805565 393.939841 447.784246 414.178661 C 577.322642 434.508646 675.04651 435.420304 746.8025 429.831838 C 988.877491 405.390272 888.380797 328.218377 1102.344443 288.852962 C 1189.670214 274.46699 1314.520345 274.804304 1459.829188 296.711458 C 1604.390098 318.062501 1769.409719 361.001618 1919.561886 419.046917 " stroke="#031684" stroke-width="1" stroke-opacity="1" stroke-miterlimit="10"/></g><g clip-path="url(#784c5a0625)"><path stroke-linecap="butt" transform="matrix(0.428263, 0, 0, 0.428477, 0.117085, 0.045559)" fill="none" stroke-linejoin="miter" d="M 0.49278 275.852711 C 156.464233 345.995719 314.132217 386.719505 440.469094 407.751468 C 568.40217 428.911062 664.985896 430.387949 735.547016 425.200612 C 973.271225 401.816571 872.309353 324.626443 1090.559933 284.613749 C 1179.45454 269.872231 1305.536025 269.471101 1452.614368 290.457481 C 1598.899173 310.933331 1766.189957 352.787575 1919.571007 410.413511 " stroke="#031684" stroke-width="1" stroke-opacity="1" stroke-miterlimit="10"/></g><g clip-path="url(#80099528e2)"><path stroke-linecap="butt" transform="matrix(0.428263, 0, 0, 0.428477, 0.117085, 0.045559)" fill="none" stroke-linejoin="miter" d="M 0.483659 267.210188 C 152.852263 337.626693 308.285568 379.398887 432.907671 401.223993 C 559.144215 423.222313 654.542193 425.273545 723.917566 420.496454 C 957.309234 398.233753 856.602754 320.988925 1079.240601 280.383654 C 1169.731407 265.313938 1296.962155 264.210831 1445.673183 284.285552 C 1593.590671 303.867978 1762.997559 344.637347 1919.552765 401.770988 " stroke="#031684" stroke-width="1" stroke-opacity="1" stroke-miterlimit="10"/></g><g clip-path="url(#bc0be18806)"><path stroke-linecap="butt" transform="matrix(0.428263, 0, 0, 0.428477, 0.117085, 0.045559)" fill="none" stroke-linejoin="miter" d="M 0.474538 258.558549 C 149.22205 329.166502 302.320344 371.959754 425.145583 394.559769 C 549.603505 417.387699 643.77013 420.031508 711.987118 415.692014 C 941.08273 394.614468 841.361333 317.232892 1068.459417 276.126209 C 1160.582906 260.773879 1288.844343 259.014378 1439.0786 278.186557 C 1588.510197 296.902907 1759.896372 336.54182 1919.543644 393.119348 " stroke="#031684" stroke-width="1" stroke-opacity="1" stroke-miterlimit="10"/></g><g clip-path="url(#3a39753d9e)"><path stroke-linecap="butt" transform="matrix(0.428263, 0, 0, 0.428477, 0.117085, 0.045559)" fill="none" stroke-linejoin="miter" d="M 0.456296 249.916026 C 145.573595 320.633378 296.236545 364.411221 417.219314 387.786146 C 539.816525 411.452801 632.742674 414.698306 699.810399 410.787291 C 924.673804 390.940484 826.648938 313.358343 1058.280227 271.87788 C 1152.0364 256.261169 1281.237314 253.890857 1432.867105 272.16961 C 1583.666873 290.019885 1756.895518 328.519225 1919.543644 384.476825 " stroke="#031684" stroke-width="1" stroke-opacity="1" stroke-miterlimit="10"/></g><g clip-path="url(#9714eb271c)"><path stroke-linecap="butt" transform="matrix(0.428263, 0, 0, 0.428477, 0.117085, 0.045559)" fill="none" stroke-linejoin="miter" d="M 0.456296 241.273503 C 141.943382 311.981739 290.079777 356.716823 409.156229 380.866658 C 529.856242 405.335573 621.48719 409.210121 687.451258 405.745819 C 908.146303 387.184451 812.556781 309.328812 1048.75776 267.556618 C 1144.183101 251.72111 1274.186675 248.776452 1427.066062 266.198247 C 1579.097183 283.200679 1753.985875 320.560446 1919.552765 375.843419 " stroke="#031684" stroke-width="1" stroke-opacity="1" stroke-miterlimit="10"/></g><g clip-path="url(#951f9f6893)"><path stroke-linecap="butt" transform="matrix(0.428263, 0, 0, 0.428477, 0.117085, 0.045559)" fill="none" stroke-linejoin="miter" d="M 0.447175 232.63098 C 138.313169 303.238933 283.859162 348.913026 400.983689 373.801304 C 519.73178 399.072479 610.040163 403.566955 674.918814 400.558482 C 891.536711 383.309903 799.121345 305.11695 1039.919377 263.180657 C 1137.013887 247.162817 1267.701546 243.698514 1421.684591 260.26335 C 1574.792006 276.436172 1751.167444 312.638133 1919.534522 367.19178 " stroke="#031684" stroke-width="1" stroke-opacity="1" stroke-miterlimit="10"/></g><g clip-path="url(#05478d57a2)"><path stroke-linecap="butt" transform="matrix(0.428263, 0, 0, 0.428477, 0.117085, 0.045559)" fill="none" stroke-linejoin="miter" d="M 0.438053 223.97934 C 134.701199 294.377612 277.602061 340.936014 392.72906 366.571852 C 509.479621 392.627053 598.483681 397.768807 662.322523 395.216163 C 769.778645 388.169042 799.32201 363.37193 834.629934 336.632985 C 869.582133 309.611427 910.298891 280.638918 1031.883655 258.731764 C 1130.62909 242.568058 1261.873139 238.63881 1416.78654 254.374036 C 1570.806069 269.753715 1748.504072 304.788753 1919.534522 358.549257 " stroke="#031684" stroke-width="1" stroke-opacity="1" stroke-miterlimit="10"/></g><g clip-path="url(#60408b9030)"><path stroke-linecap="butt" transform="matrix(0.428263, 0, 0, 0.428477, 0.117085, 0.045559)" fill="none" stroke-linejoin="miter" d="M 0.438053 215.336817 C 131.143955 285.416009 271.326719 332.831369 384.447067 359.178301 C 499.181857 386.008412 586.854231 391.77921 649.689748 389.700629 C 755.549671 383.437535 784.855886 358.749822 821.468132 332.083809 C 857.624321 305.098717 901.077421 276.153558 1024.659714 254.173471 C 1125.083439 237.918599 1256.719696 233.579105 1412.399273 248.502955 C 1567.157614 263.107725 1745.959274 296.975839 1919.525401 349.906734 " stroke="#031684" stroke-width="1" stroke-opacity="1" stroke-miterlimit="10"/></g><g clip-path="url(#4f1d217a0a)"><path stroke-linecap="butt" transform="matrix(0.428263, 0, 0, 0.428477, 0.117085, 0.045559)" fill="none" stroke-linejoin="miter" d="M 0.428932 206.694294 C 127.623196 276.33589 265.060497 324.55351 376.146832 351.602419 C 488.838487 379.180089 575.170054 385.598165 637.066093 383.966297 C 741.411907 378.505462 770.69988 353.918031 808.817114 327.334068 C 846.377959 300.403675 892.768065 271.467633 1018.329645 249.47843 C 1120.404295 233.177975 1252.286824 228.49205 1408.541032 242.631874 C 1563.855762 256.489084 1743.551294 289.190275 1919.534522 341.264211 " stroke="#031684" stroke-width="1" stroke-opacity="1" stroke-miterlimit="10"/></g><g clip-path="url(#c36cd0c015)"><path stroke-linecap="butt" transform="matrix(0.428263, 0, 0, 0.428477, 0.117085, 0.045559)" fill="none" stroke-linejoin="miter" d="M 0.419811 198.051772 C 124.148043 267.146372 258.812518 316.120668 367.855718 343.844205 C 478.485995 372.142085 563.51324 379.189206 624.506287 378.040516 C 727.420082 373.381941 756.890478 348.885676 796.722486 322.383763 C 835.879529 295.498952 885.407307 266.599377 1012.92081 244.655756 C 1116.628144 228.373534 1248.592763 223.377646 1405.23918 236.76991 C 1560.918756 249.916026 1741.280131 281.468528 1919.507159 332.621688 " stroke="#031684" stroke-width="1" stroke-opacity="1" stroke-miterlimit="10"/></g><g clip-path="url(#d8a9ee07e2)"><path stroke-linecap="butt" transform="matrix(0.428263, 0, 0, 0.428477, 0.117085, 0.045559)" fill="none" stroke-linejoin="miter" d="M 0.419811 189.400132 C 120.782343 257.838338 252.637508 307.496379 359.637573 335.858076 C 468.206473 364.857934 551.920274 372.552332 612.092419 371.859471 C 713.656286 368.012272 743.528011 343.607173 785.284579 317.169076 C 826.247608 290.338965 879.086358 261.475856 1008.542664 239.659867 C 1113.86444 223.432345 1245.728726 218.199425 1402.557565 230.889712 C 1558.401322 243.370317 1739.200511 273.774129 1919.507159 323.970048 " stroke="#031684" stroke-width="1" stroke-opacity="1" stroke-miterlimit="10"/></g><g clip-path="url(#6ba67857a3)"><path stroke-linecap="butt" transform="matrix(0.428263, 0, 0, 0.428477, 0.117085, 0.045559)" fill="none" stroke-linejoin="miter" d="M 0.41069 180.748493 C 117.47137 248.402672 246.526346 298.70799 351.501518 327.671382 C 458.009042 357.327634 540.445883 365.651077 599.851852 365.432279 C 700.202608 362.378223 730.667207 338.073406 774.549 311.708241 C 817.518679 284.941947 873.88731 256.12442 1005.22257 234.49988 C 1112.131423 218.37264 1243.722075 212.975622 1400.523552 225.000398 C 1556.30346 236.851959 1737.303315 266.107081 1919.51628 315.336642 " stroke="#031684" stroke-width="1" stroke-opacity="1" stroke-miterlimit="10"/></g><g clip-path="url(#037696417d)"><path stroke-linecap="butt" transform="matrix(0.428263, 0, 0, 0.428477, 0.117085, 0.045559)" fill="none" stroke-linejoin="miter" d="M 0.401569 172.10597 C 114.269851 238.848491 240.515516 289.728154 343.465796 319.26589 C 447.939306 349.560304 529.126551 358.51279 587.830193 358.740705 C 687.059049 356.498025 718.371914 332.257025 764.570476 305.973909 C 809.74747 279.253197 869.819282 250.49037 1002.997012 229.130211 C 1111.447338 213.157953 1242.572812 207.678886 1399.118896 219.065501 C 1554.61605 230.3336 1735.561177 258.467383 1919.488917 306.694119 " stroke="#031684" stroke-width="1" stroke-opacity="1" stroke-miterlimit="10"/></g><g clip-path="url(#00a7e68f9d)"><path stroke-linecap="butt" transform="matrix(0.428263, 0, 0, 0.428477, 0.117085, 0.045559)" fill="none" stroke-linejoin="miter" d="M 0.401569 163.463447 C 111.177785 229.139328 234.641503 280.547752 335.612496 310.632484 C 438.070235 341.519475 518.044369 351.082773 576.118652 351.757401 C 674.371546 350.307864 706.733342 326.139796 755.458459 299.929613 C 803.052555 273.272717 867.019093 244.573707 1001.993687 223.541744 C 1111.949001 207.788285 1242.39951 202.281867 1398.462175 213.094137 C 1553.448544 223.806125 1734.047069 250.845917 1919.498038 298.04248 " stroke="#031684" stroke-width="1" stroke-opacity="1" stroke-miterlimit="10"/></g><g clip-path="url(#d8d2a0d499)"><path stroke-linecap="butt" transform="matrix(0.428263, 0, 0, 0.428477, 0.117085, 0.045559)" fill="none" stroke-linejoin="miter" d="M 0.392448 154.811807 C 108.213415 219.302532 228.904308 271.157669 327.923377 301.743813 C 428.392708 333.1778 507.190215 343.342792 564.735472 344.482365 C 662.140101 343.825971 695.769735 319.703486 747.249436 293.55712 C 797.452177 266.945807 865.514105 238.328846 1002.212594 217.716246 C 1113.618169 202.254517 1243.193049 196.793683 1398.516901 207.068074 C 1552.746217 217.296883 1732.742746 243.260918 1919.498038 289.399957 " stroke="#031684" stroke-width="1" stroke-opacity="1" stroke-miterlimit="10"/></g><g clip-path="url(#a81e0b017a)"><path stroke-linecap="butt" transform="matrix(0.428263, 0, 0, 0.428477, 0.117085, 0.045559)" fill="none" stroke-linejoin="miter" d="M 0.392448 146.160168 C 105.376741 209.319871 223.331293 261.567022 320.453166 292.599878 C 418.979694 324.562626 496.673544 335.301964 553.762744 336.870017 C 650.455923 336.997649 685.581424 312.902514 740.016373 286.838196 C 793.037546 260.281583 865.359046 231.746671 1003.726703 211.635484 C 1116.546054 196.520185 1245.008156 191.186983 1399.356046 200.987312 C 1552.572915 210.778525 1731.666452 235.703269 1919.507159 280.757434 " stroke="#031684" stroke-width="1" stroke-opacity="1" stroke-miterlimit="10"/></g><g clip-path="url(#da923d3223)"><path stroke-linecap="butt" transform="matrix(0.428263, 0, 0, 0.428477, 0.117085, 0.045559)" fill="none" stroke-linejoin="miter" d="M 0.383327 137.517645 C 102.676885 199.209578 217.949821 251.757576 313.210982 283.200679 C 409.849435 315.628373 486.476112 326.942055 543.209588 328.929471 C 639.346378 329.832013 676.214016 305.745994 733.814 279.745493 C 789.854269 253.243579 866.626884 224.80895 1006.581619 205.281224 C 1120.732656 190.548822 1247.872193 185.443534 1400.970487 194.8245 C 1552.901276 204.232816 1730.799944 228.127387 1919.488917 272.105794 " stroke="#031684" stroke-width="1" stroke-opacity="1" stroke-miterlimit="10"/></g><g clip-path="url(#d30aabaac0)"><path stroke-linecap="butt" transform="matrix(0.428263, 0, 0, 0.428477, 0.117085, 0.045559)" fill="none" stroke-linejoin="miter" d="M 0.383327 128.866005 C 100.159451 188.92607 212.787258 241.720215 306.269797 273.518865 C 401.06578 306.365922 476.716495 318.2266 533.185458 320.642495 C 628.93916 322.292597 667.767843 298.215695 728.742647 272.288126 C 788.011799 245.831795 869.417952 217.506565 1010.877675 198.653466 C 1126.29655 184.38601 1251.876372 179.572453 1403.451437 188.588756 C 1553.822511 197.677992 1730.197948 220.597087 1919.498038 263.490621 " stroke="#031684" stroke-width="1" stroke-opacity="1" stroke-miterlimit="10"/></g><g clip-path="url(#2250050631)"><path stroke-linecap="butt" transform="matrix(0.428263, 0, 0, 0.428477, 0.117085, 0.045559)" fill="none" stroke-linejoin="miter" d="M 0.374206 120.223482 C 97.787955 178.505813 207.861843 231.436707 299.620487 263.554437 C 392.656091 296.766158 467.385571 309.155597 523.699474 311.963506 C 619.23427 314.342934 660.261146 290.256916 724.829679 264.384047 C 787.528379 237.982415 873.768735 209.793933 1016.633113 191.661045 C 1133.246857 177.940584 1257.011573 173.509924 1406.771531 182.216263 C 1555.300135 191.050234 1729.842224 213.030321 1919.488917 254.820749 " stroke="#031684" stroke-width="1" stroke-opacity="1" stroke-miterlimit="10"/></g><g clip-path="url(#e8095d5250)"><path stroke-linecap="butt" transform="matrix(0.428263, 0, 0, 0.428477, 0.117085, 0.045559)" fill="none" stroke-linejoin="miter" d="M 0.374206 111.571843 C 95.617124 167.930574 203.210063 220.934401 293.326902 253.289162 C 384.684217 286.819963 458.583673 299.719931 514.84285 302.892503 C 610.332039 305.983026 653.812502 281.860541 722.175428 256.051488 C 788.522583 229.704556 879.752201 201.643706 1023.930023 184.35866 C 1141.656546 171.230777 1263.350763 167.283296 1411.021981 175.770837 C 1557.407118 184.422476 1729.769255 205.490905 1919.498038 246.187342 " stroke="#031684" stroke-width="1" stroke-opacity="1" stroke-miterlimit="10"/></g><g clip-path="url(#90f7e61279)"><path stroke-linecap="butt" transform="matrix(0.428263, 0, 0, 0.428477, 0.117085, 0.045559)" fill="none" stroke-linejoin="miter" d="M 0.355963 102.920203 C 93.628716 157.191236 198.822796 210.158597 287.398163 242.72304 C 377.159278 276.509105 450.30168 289.892252 506.633826 293.411254 C 602.268954 297.176404 648.440152 273.017453 720.8255 247.263099 C 791.021775 220.952634 887.432199 193.046766 1032.814011 176.709845 C 1151.580344 164.25659 1270.930429 160.883453 1416.184545 169.197779 C 1560.116096 177.730903 1729.960799 197.960606 1919.488917 237.535703 " stroke="#031684" stroke-width="1" stroke-opacity="1" stroke-miterlimit="10"/></g><g clip-path="url(#1161dd9280)"><path stroke-linecap="butt" transform="matrix(0.428263, 0, 0, 0.428477, 0.117085, 0.045559)" fill="none" stroke-linejoin="miter" d="M 0.355963 94.268564 C 91.859215 146.278683 194.76389 199.136645 281.888996 231.82872 C 370.136002 265.824467 442.639925 279.636094 499.154493 283.510643 C 595.136224 287.92307 644.244429 263.700303 720.871106 237.991532 C 795.117166 211.72665 896.881698 184.003114 1043.348925 168.68725 C 1163.045613 156.990671 1279.796175 154.283045 1422.32307 162.497089 C 1563.500038 170.975513 1730.462461 190.412073 1919.498038 228.902296 " stroke="#031684" stroke-width="1" stroke-opacity="1" stroke-miterlimit="10"/></g><g clip-path="url(#7fa786af1c)"><path stroke-linecap="butt" transform="matrix(0.428263, 0, 0, 0.428477, 0.117085, 0.045559)" fill="none" stroke-linejoin="miter" d="M 0.355963 85.616924 C 90.308622 135.211149 191.024223 187.850313 276.817643 220.624437 C 363.678237 254.738699 435.616649 268.987922 492.441336 273.163318 C 588.979456 278.186557 641.280059 253.88174 722.34873 228.209436 C 800.863482 201.999253 908.146303 174.439815 1055.589492 160.263525 C 1176.134446 149.387439 1289.984485 147.43649 1429.4558 155.650533 C 1567.549823 164.156307 1731.256 182.836191 1919.507159 220.250657 " stroke="#031684" stroke-width="1" stroke-opacity="1" stroke-miterlimit="10"/></g><g clip-path="url(#246b09c975)"><path stroke-linecap="butt" transform="matrix(0.428263, 0, 0, 0.428477, 0.117085, 0.045559)" fill="none" stroke-linejoin="miter" d="M 0.346842 76.974401 C 88.976936 123.961282 187.622039 176.299599 272.202348 209.05549 C 357.767739 243.251802 429.286579 257.865688 486.53996 262.351048 C 583.853377 267.975981 639.60177 243.543532 725.340463 217.916811 C 808.333694 191.752211 921.317225 164.393338 1069.599559 151.429554 C 1190.874204 141.45601 1301.540967 140.380253 1437.619218 148.648996 C 1572.283693 157.282402 1732.350537 175.269425 1919.498038 211.599017 " stroke="#031684" stroke-width="1" stroke-opacity="1" stroke-miterlimit="10"/></g><g clip-path="url(#d3a9858995)"><path stroke-linecap="butt" transform="matrix(0.428263, 0, 0, 0.428477, 0.117085, 0.045559)" fill="none" stroke-linejoin="miter" d="M 0.346842 68.322762 C 87.900642 112.529084 184.621185 164.457155 268.097836 197.158346 C 352.513964 231.363774 423.704443 246.333208 481.532455 251.055599 C 579.840076 257.227527 639.291651 232.65833 729.910153 207.077191 C 817.591649 180.949057 936.449192 153.799866 1085.415611 142.17622 C 1207.310494 133.187267 1314.492982 133.077868 1446.840688 141.501593 C 1577.719891 150.326447 1733.773434 167.684426 1919.488917 202.965611 " stroke="#031684" stroke-width="1" stroke-opacity="1" stroke-miterlimit="10"/></g><g clip-path="url(#593be61cfc)"><path stroke-linecap="butt" transform="matrix(0.428263, 0, 0, 0.428477, 0.117085, 0.045559)" fill="none" stroke-linejoin="miter" d="M 0.346842 59.671122 C 87.088861 100.932788 182.012539 152.341213 264.540592 184.896539 C 347.916911 219.019918 418.915846 234.299315 477.464428 239.267854 C 577.003402 245.950311 640.413551 221.217015 736.149011 195.663226 C 828.728558 169.571559 953.633416 142.650282 1103.147103 132.45794 C 1225.543648 124.535627 1328.931743 125.511102 1457.193179 134.162741 C 1583.940507 143.27021 1735.552056 160.072077 1919.507159 194.313972 " stroke="#031684" stroke-width="1" stroke-opacity="1" stroke-miterlimit="10"/></g><g clip-path="url(#9d3e14130a)"><path stroke-linecap="butt" transform="matrix(0.428263, 0, 0, 0.428477, 0.117085, 0.045559)" fill="none" stroke-linejoin="miter" d="M 0.346842 51.019483 C 86.532471 89.135926 179.823466 139.924423 261.539738 172.270068 C 344.040427 206.247582 414.957272 221.79136 474.372362 226.978697 C 575.37984 234.116983 643.022196 209.201355 744.093522 183.6658 C 841.780905 157.610599 972.888137 130.93547 1122.821397 122.302064 C 1245.591909 115.519324 1344.857249 117.689072 1468.658449 126.668908 C 1590.899935 136.159274 1737.66816 152.459728 1919.51628 185.689682 " stroke="#031684" stroke-width="1" stroke-opacity="1" stroke-miterlimit="10"/></g><g clip-path="url(#05c6aaa845)"><path stroke-linecap="butt" transform="matrix(0.428263, 0, 0, 0.428477, 0.117085, 0.045559)" fill="none" stroke-linejoin="miter" d="M 0.346842 42.367843 C 86.258837 77.156733 178.081329 127.19767 259.140879 159.260701 C 340.902756 193.0103 411.901691 208.791109 472.320106 214.142545 C 575.0606 221.700194 647.199677 196.565768 753.816655 171.057562 C 856.830782 145.029711 994.331932 118.62808 1144.484098 111.626542 C 1267.49176 106.092775 1362.324227 109.557078 1481.282104 118.956277 C 1598.643781 128.920705 1740.139988 144.801796 1919.507159 177.038042 " stroke="#031684" stroke-width="1" stroke-opacity="1" stroke-miterlimit="10"/></g></g></g></g></g></svg>