<?xml version="1.0" encoding="UTF-8"?><svg id="Layer_1" xmlns="http://www.w3.org/2000/svg" viewBox="0 0 882.99 1080"><defs><style>.cls-1{fill:none;stroke:#031684;stroke-miterlimit:10;}</style></defs><path class="cls-1" d="m380.16,1441.31c66.93-45.58,146.24-107.17,214.14-181.04,68.47-73.65,125.52-159.58,161-248.74,62.26-153.25,56.96-288.66,38.22-416.82-20.46-129.57-54.37-251.87-89.07-411.52-29.71-127.34-57.94-247.57-95.64-361.39-37.65-113.16-84.76-219.91-150.94-305.01"/><path class="cls-1" d="m375.57,1432.68c64.87-45.24,141.81-106.64,207.69-180.07,66.42-73.23,121.79-158.49,156.12-246.76,60.3-151.7,54.78-285.39,36.29-411.86-20.16-127.86-53.29-248.5-86.68-406.28-28.6-125.88-55.5-244.97-91.55-358.28-36-112.66-81.16-219.54-145.04-305.88"/><path class="cls-1" d="m371,1423.99c62.86-44.89,137.5-106.07,201.4-179.04,64.43-72.78,118.13-157.36,151.36-244.75,58.37-150.14,52.64-282.13,34.39-406.93-19.86-126.18-52.24-245.17-84.35-401.09-27.51-124.43-53.11-242.37-87.56-355.14-34.39-112.12-77.63-219.06-139.24-306.56"/><path class="cls-1" d="m366.46,1415.25c60.93-44.52,133.29-105.45,195.26-177.95,62.48-72.33,114.55-156.22,146.68-242.7,56.49-148.59,50.56-278.88,32.55-402.03-19.57-124.51-51.22-241.88-82.06-395.95-26.46-122.99-50.78-239.77-83.64-351.96-32.81-111.55-74.17-218.5-133.56-307.06"/><path class="cls-1" d="m361.94,1406.47c59.04-44.14,129.2-104.8,189.27-176.81,60.57-71.85,111.05-155.05,142.11-240.63,54.64-147.04,48.52-275.64,30.74-397.16-19.28-122.85-50.2-238.63-79.82-390.86-25.43-121.56-48.5-237.17-79.82-348.75-31.27-110.94-70.78-217.85-127.98-307.39"/><path class="cls-1" d="m357.43,1397.66c57.21-43.74,125.21-104.11,183.44-175.61,58.7-71.36,107.62-153.85,137.63-238.53,52.83-145.49,46.52-272.43,28.97-392.34-18.99-121.23-49.22-235.42-77.62-385.82-24.42-120.14-46.27-234.57-76.07-345.51-29.75-110.31-67.45-217.11-122.5-307.56"/><path class="cls-1" d="m352.94,1388.81c55.44-43.34,121.34-103.39,177.76-174.37,56.88-70.85,104.27-152.63,133.25-236.42,51.06-143.92,44.56-269.22,27.25-387.54-18.71-119.62-48.25-232.26-75.48-380.85-23.43-118.71-44.1-231.97-72.41-342.23-28.27-109.65-64.19-216.29-117.13-307.56"/><path class="cls-1" d="m348.46,1379.95c53.72-42.91,117.58-102.63,172.23-173.08,55.09-70.33,100.99-151.38,128.98-234.27,49.33-142.37,42.65-266.03,25.56-382.77-18.44-118.02-47.29-229.13-73.38-375.93-22.47-117.31-41.97-229.38-68.83-338.94-26.82-108.95-61-215.39-111.86-307.4"/><path class="cls-1" d="m343.98,1371.08c52.06-42.49,113.91-101.85,166.84-171.75,53.36-69.79,97.79-150.12,124.8-232.11,47.63-140.83,40.78-262.87,23.9-378.06-18.17-116.45-46.36-226.04-71.32-371.06-21.53-115.92-39.89-226.8-65.33-335.63-25.4-108.23-57.87-214.41-106.69-307.08"/><path class="cls-1" d="m339.51,1362.2c50.46-42.06,110.37-101.05,161.62-170.39,51.66-69.25,94.66-148.84,120.7-229.94,45.97-139.28,38.95-259.72,22.3-373.37-17.9-114.89-45.44-223.01-69.32-366.25-20.6-114.53-37.87-224.22-61.92-332.3-24.01-107.48-54.81-213.35-101.62-306.61"/><path class="cls-1" d="m335.03,1353.32c48.91-41.63,106.92-100.23,156.53-169,50-68.69,91.6-147.54,116.71-227.74,44.35-137.73,37.16-256.59,20.72-368.73-17.64-113.36-44.55-220.01-67.35-361.5-19.71-113.15-35.89-221.65-58.58-328.95-22.65-106.71-51.81-212.23-96.65-305.99"/><path class="cls-1" d="m330.55,1344.46c47.41-41.2,103.58-99.39,151.59-167.58,48.39-68.11,88.62-146.23,112.82-225.54,42.76-136.2,35.42-253.49,19.18-364.13-17.39-111.85-43.68-217.05-65.44-356.81-18.83-111.79-33.96-219.09-55.31-325.58-21.32-105.92-48.87-211.02-91.79-305.23"/><path class="cls-1" d="m326.06,1335.61c45.98-40.76,100.34-98.53,146.8-166.14,46.81-67.54,85.71-144.9,109.01-223.32,41.21-134.67,33.72-250.41,17.69-359.58-17.14-110.35-42.82-214.15-63.57-352.18-17.98-110.44-32.08-216.55-52.13-322.21-20.02-105.1-45.99-209.75-87.01-304.33"/><path class="cls-1" d="m321.56,1326.79c44.6-40.33,97.21-97.66,142.15-164.67,45.28-66.95,82.87-143.57,105.29-221.1,39.7-133.15,32.06-247.35,16.22-355.07-16.89-108.88-41.98-211.28-61.75-347.62-17.15-109.11-30.25-214.01-49.03-318.82-18.75-104.26-43.18-208.41-82.33-303.29"/><path class="cls-1" d="m317.04,1318c43.27-39.89,94.19-96.79,137.64-163.19,43.78-66.36,80.1-142.21,101.67-218.87,38.22-131.63,30.44-244.31,14.8-350.6-16.66-107.43-41.17-208.46-59.97-343.12-16.34-107.78-28.47-211.49-46-315.43-17.51-103.39-40.42-207.01-77.75-302.12"/><path class="cls-1" d="m312.51,1309.26c41.99-39.47,91.26-95.91,133.28-161.71,42.33-65.76,77.41-140.86,98.15-216.63,36.78-130.12,28.85-241.31,13.41-346.19-16.42-106-40.37-205.69-58.24-338.68-15.55-106.46-26.73-208.98-43.05-312.02-16.29-102.51-37.73-205.55-73.26-300.83"/><path class="cls-1" d="m307.95,1300.56c83.39-77.84,185.77-224.58,223.76-374.61,35.37-128.62,27.31-238.33,12.06-341.82-16.2-104.59-39.59-202.96-56.55-334.31-14.79-105.17-25.04-206.5-40.17-308.62-15.11-101.61-35.09-204.03-68.86-299.41"/><path class="cls-1" d="m303.37,1291.92c80.96-77.04,179.82-222.61,216.33-370.87,34-127.13,25.81-235.38,10.73-337.5-15.97-103.21-38.83-200.28-54.9-330.01-14.03-103.89-23.39-204.02-37.36-305.22-13.95-100.69-32.52-202.45-64.56-297.87"/><path class="cls-1" d="m298.75,1283.34c78.62-76.26,174.06-220.63,209.13-367.14,32.66-125.65,24.34-232.45,9.45-333.23-15.75-101.84-38.09-197.65-53.3-325.78-13.31-102.62-21.79-201.57-34.63-301.82-12.82-99.76-30.01-200.82-60.35-296.22"/><path class="cls-1" d="m294.1,1274.84c76.39-75.49,168.5-218.64,202.16-363.41,31.35-124.18,22.92-229.56,8.2-329.02-15.54-100.5-37.37-195.06-51.75-321.6-12.6-101.37-20.23-199.14-31.97-298.43-11.72-98.81-27.55-199.14-56.23-294.45"/><path class="cls-1" d="m289.42,1266.41c74.27-74.75,163.11-216.65,195.41-359.7,30.08-122.72,21.53-226.7,6.98-324.86-15.34-99.18-36.67-192.52-50.23-317.51-11.91-100.13-18.72-196.73-29.38-295.04-10.65-97.84-25.15-197.41-52.19-292.58"/><path class="cls-1" d="m284.7,1258.07c72.24-74.04,157.92-214.67,188.88-356.02,28.84-121.28,20.18-223.88,5.79-320.76-15.13-97.88-35.98-190.03-48.76-313.48-11.25-98.92-17.25-194.35-26.85-291.67-9.6-96.87-22.8-195.63-48.24-290.6"/><path class="cls-1" d="m279.93,1249.82c70.32-73.34,152.9-212.69,182.57-352.35,27.64-119.85,18.87-221.09,4.64-316.71-14.94-96.6-35.32-187.59-47.33-309.52-10.6-97.72-15.82-191.98-24.4-288.31-8.58-95.88-20.51-193.81-44.38-288.53"/><path class="cls-1" d="m275.11,1241.68c68.51-72.68,148.07-210.73,176.49-348.73,26.47-118.43,17.59-218.33,3.52-312.72-14.74-95.35-34.67-185.19-45.95-305.65-9.98-96.54-14.44-189.65-22.02-284.96-7.58-94.88-18.27-191.96-40.61-286.36"/><path class="cls-1" d="m270.25,1233.64c66.78-72.06,143.42-208.78,170.62-345.14,25.33-117.03,16.35-215.6,2.43-308.78-14.56-94.12-34.04-182.86-44.6-301.84-9.37-95.38-13.1-187.34-19.71-281.63-6.61-93.87-16.09-190.06-36.92-284.1"/><path class="cls-1" d="m265.32,1225.72c65.18-71.48,138.94-206.85,164.97-341.6,24.23-115.64,15.15-212.91,1.38-304.91-14.38-92.92-33.44-180.57-43.3-298.11-8.78-94.23-11.8-185.06-17.46-278.32-5.66-92.85-13.96-188.13-33.31-281.75"/><path class="cls-1" d="m260.34,1217.92c63.66-70.93,134.65-204.96,159.53-338.11,23.15-114.27,13.98-210.26.35-301.11-14.2-91.74-32.85-178.32-42.04-294.46-8.21-93.1-10.54-182.81-15.28-275.03-4.74-91.82-11.89-186.15-29.79-279.32"/><path class="cls-1" d="m255.3,1210.26c62.24-70.43,130.53-203.1,154.31-334.68,22.11-112.92,12.84-207.65-.64-297.36-14.03-90.58-32.28-176.14-40.83-290.88-7.66-92-9.32-180.6-13.16-271.77-3.84-90.79-9.86-184.15-26.34-276.82"/><path class="cls-1" d="m250.2,1202.73c60.92-69.97,126.58-201.28,149.29-331.31,21.1-111.59,11.74-205.08-1.61-293.68-13.87-89.45-31.73-174-39.65-287.38-7.13-90.92-8.15-178.41-11.11-268.53-2.97-89.75-7.89-182.13-22.98-274.24"/><path class="cls-1" d="m245.02,1195.36c59.7-69.58,122.81-199.5,144.49-328.02,20.12-110.27,10.68-202.55-2.54-290.06-13.71-88.34-31.2-171.91-38.51-283.97-6.61-89.87-7.01-176.26-9.12-265.33-2.12-88.71-5.96-180.08-19.69-271.58"/><path class="cls-1" d="m239.77,1188.13c58.56-69.23,119.22-197.78,139.89-324.8,19.17-108.98,9.65-200.06-3.45-286.51-13.56-87.26-30.69-169.88-37.42-280.63-6.11-88.82-5.91-174.15-7.2-262.16-1.3-87.66-4.09-178-16.49-268.87"/><path class="cls-1" d="m234.45,1181.07c57.53-68.95,115.79-196.11,135.5-321.66,18.25-107.7,8.65-197.62-4.32-283.03-13.41-86.2-30.19-167.9-36.36-277.38-5.64-87.81-4.85-172.07-5.33-259.02-.5-86.62-2.27-175.91-13.35-266.09"/><path class="cls-1" d="m229.04,1174.18c56.6-68.72,112.54-194.5,131.32-318.62,17.36-106.45,7.69-195.22-5.17-279.62-13.27-85.17-29.72-165.97-35.35-274.21-5.18-86.8-3.83-170.03-3.53-255.92.28-85.57-.49-173.78-10.3-263.25"/><path class="cls-1" d="m223.56,1167.46c55.75-68.57,109.45-192.96,127.33-315.66,16.51-105.22,6.76-192.86-5.99-276.28-13.13-84.16-29.26-164.1-34.38-271.12-4.73-85.83-2.84-168.03-1.79-252.86,1.04-84.52,1.24-171.66-7.32-260.36"/><path class="cls-1" d="m217.98,1160.93c55-68.47,106.53-191.47,123.55-312.81,15.68-104.01,5.85-190.56-6.79-273.01-13-83.18-28.82-162.27-33.44-268.12-8.76-167.93,10.01-329.62-4.52-507.26"/><path class="cls-1" d="m212.32,1154.59c54.35-68.46,103.77-190.08,119.96-310.07,14.88-102.82,4.99-188.29-7.55-269.81-12.87-82.23-28.39-160.51-32.54-265.21-7.95-166.18,12.06-325.41-.06-501.3"/><path class="cls-1" d="m206.56,1148.46c53.77-68.51,101.18-188.75,116.57-307.44,14.11-101.66,4.15-186.08-8.29-266.7-12.76-81.3-28-158.8-31.69-262.38-7.19-164.47,14.03-321.28,4.27-495.35"/><path class="cls-1" d="m200.71,1142.52c53.29-68.64,98.75-187.53,113.38-304.93,13.38-100.53,3.35-183.91-9-263.65-12.64-80.4-27.61-157.15-30.87-259.64-6.46-162.82,15.92-317.22,8.47-489.4"/><path class="cls-1" d="m194.75,1136.81c52.91-68.86,96.48-186.39,110.38-302.54,12.66-99.42,2.57-181.79-9.69-260.68-12.54-79.52-27.25-155.55-30.09-256.99-5.75-161.22,17.74-313.25,12.54-483.48"/><path class="cls-1" d="m188.69,1131.31c52.61-69.17,94.37-185.34,107.58-300.29,11.98-98.33,1.83-179.73-10.35-257.79-12.43-78.68-26.9-154.01-29.35-254.44-5.08-159.67,19.49-309.36,16.49-477.58"/><path class="cls-1" d="m182.52,1126.05c52.41-69.56,92.42-184.4,104.96-298.18,11.32-97.28,1.11-177.72-10.99-254.99-12.34-77.86-26.57-152.52-28.64-251.97-4.45-158.17,21.16-305.55,20.33-471.72"/><path class="cls-1" d="m176.24,1121.02c52.28-70.04,90.63-183.56,102.53-296.21,10.7-96.25.43-175.77-11.6-252.26-12.25-77.06-26.27-151.1-27.97-249.6-3.84-156.75,22.76-301.84,24.04-465.89"/><path class="cls-1" d="m169.84,1116.24c52.24-70.62,88.98-182.85,100.29-294.39,10.1-95.26-.22-173.87-12.19-249.62-12.16-76.3-25.98-149.73-27.35-247.31-3.27-155.36,24.29-298.22,27.63-460.11"/><path class="cls-1" d="m163.33,1111.71c52.3-71.3,87.51-182.24,98.23-292.72,9.52-94.29-.85-172.02-12.76-247.06-12.08-75.56-25.7-148.42-26.75-245.13-2.73-154.04,25.74-294.69,31.1-454.38"/><path class="cls-1" d="m156.69,1107.44c52.43-72.07,86.17-181.76,96.36-291.22,8.98-93.35-1.45-170.23-13.3-244.58-12.01-74.85-25.45-147.17-26.2-243.04-2.21-152.77,27.15-291.28,34.47-448.71"/><path class="cls-1" d="m149.93,1103.44c52.66-72.97,84.99-181.41,94.66-289.89,8.45-92.43-2.02-168.5-13.82-242.19-11.94-74.18-25.21-145.98-25.68-241.06-1.73-151.56,28.47-287.96,37.72-443.11"/><path class="cls-1" d="m143.04,1099.71c52.95-73.96,83.96-181.17,93.15-288.73,7.96-91.56-2.56-166.82-14.32-239.89-11.88-73.52-24.99-144.85-25.2-239.17-1.28-150.43,29.74-284.75,40.86-437.57"/><path class="cls-1" d="m136.02,1096.27c53.34-75.07,83.08-181.1,91.82-287.75,7.49-90.72-3.08-165.21-14.79-237.68-11.83-72.9-24.79-143.77-24.75-237.37-.85-149.35,30.93-281.64,43.89-432.12"/><path class="cls-1" d="m128.85,1093.12c53.81-76.3,82.35-181.16,90.66-286.97,7.05-89.91-3.57-163.66-15.25-235.55-11.78-72.31-24.61-142.77-24.34-235.68-.46-148.33,32.07-278.66,46.82-426.75"/><path class="cls-1" d="m121.55,1090.26c54.36-77.65,81.76-181.36,89.67-286.37,6.64-89.14-4.03-162.17-15.68-233.53-11.74-71.75-24.45-141.82-23.96-234.09-.09-147.38,33.14-275.79,49.64-421.47"/><path class="cls-1" d="m114.11,1087.71c54.99-79.11,81.31-181.72,88.86-285.98,6.24-88.4-4.47-160.75-16.1-231.59-11.7-71.22-24.31-140.93-23.62-232.6.24-146.49,34.16-273.04,52.36-416.28"/><path class="cls-1" d="m106.51,1085.48c55.7-80.7,81.02-182.25,88.22-285.79,5.88-87.69-4.88-159.38-16.49-229.75-11.67-70.72-24.18-140.11-23.31-231.22.56-145.67,35.1-270.42,54.98-411.21"/><path class="cls-1" d="m98.77,1083.56c56.49-82.42,80.86-182.93,87.75-285.81,5.53-87.03-5.27-158.08-16.86-228-11.65-70.24-24.08-139.34-23.04-229.95.84-144.91,36-267.93,57.5-406.24"/><path class="cls-1" d="m90.87,1081.98c29.2-43.12,48.72-87.77,62.66-136.12,13.78-48.04,22-99.77,24.78-149.93,5.22-86.4-5.63-156.85-17.21-226.35-11.63-69.8-23.98-138.64-22.8-228.77,1.1-144.22,36.84-265.56,59.92-401.39"/><path class="cls-1" d="m82.82,1080.72c29.7-44.18,49.21-89.01,63.04-137.3,13.66-47.97,21.64-99.4,24.26-149.21,9.62-173.38-42.99-274.87-40.15-452.51,1.33-143.6,37.62-263.33,62.24-396.66"/><path class="cls-1" d="m74.6,1079.81c30.24-45.3,49.77-90.36,63.52-138.63,13.56-47.93,21.34-99.09,23.81-148.57,9.14-172.13-43.31-273.07-40.3-450.1,1.53-143.06,38.35-261.23,64.48-392.07"/><path class="cls-1" d="m66.22,1079.26c30.81-46.51,50.41-91.82,64.1-140.12,13.49-47.93,21.08-98.83,23.42-148.02,8.69-170.95-43.62-271.41-40.46-447.91,1.71-142.58,39.02-259.29,66.62-387.61"/><path class="cls-1" d="m57.67,1079.06c31.43-47.79,51.12-93.41,64.77-141.75,13.45-47.96,20.87-98.64,23.1-147.56,8.3-169.87-43.93-269.86-40.64-445.92,1.87-142.18,39.64-257.48,68.67-383.3"/></svg>