<?xml version="1.0" encoding="UTF-8"?><svg id="Layer_1" xmlns="http://www.w3.org/2000/svg" viewBox="0 0 650.58 1140.29"><defs><style>.cls-1{fill:none;stroke:#031684;stroke-miterlimit:10;stroke-width:1.03px;}</style></defs><path class="cls-1" d="m504.37,1150.3c40.27-115.18,55.94-187.81,65.85-247.29,9.11-59.07,12.45-104.98,9.65-157.21-3.82-85.05-27.11-172.02-53.47-240.48-25.69-70.54-54.45-122.57-53.64-185.7.75-50.92,25-104.85,60.94-160.12,34.99-54.93,81.65-111.19,105.31-158.93"/><path class="cls-1" d="m495.73,1150.29c41.35-116.86,57.15-193.09,66.61-255.36,8.67-61.94,11.01-109.92,7.42-162.64-5.36-85.98-29.07-169.76-55.6-235.05-25.86-67.26-54.54-116.05-54.35-177.6.36-49.63,24.11-103.52,60.41-159.1,35.36-55.23,83.29-112.16,110.14-159.98"/><path class="cls-1" d="m487.09,1150.29c42.47-118.29,58.47-197.87,67.56-262.73,8.33-64.6,9.74-114.49,5.42-167.61-6.79-86.77-30.88-167.4-57.56-229.63-26.02-64.1-54.62-109.79-55.09-169.92-.06-48.46,23.13-102.42,59.72-158.42,35.65-55.65,84.69-113.34,114.55-161.41"/><path class="cls-1" d="m478.45,1150.28c43.62-119.5,59.9-202.17,68.7-269.41,8.06-67.07,8.64-118.71,3.65-172.15-8.1-87.41-32.55-164.95-59.37-224.21-26.16-61.03-54.7-103.78-55.86-162.64-.51-47.43,22.08-101.55,58.87-158.07,35.84-56.18,85.89-114.76,118.59-163.22"/><path class="cls-1" d="m469.81,1150.28c44.79-120.49,61.42-206,70.02-275.44,7.87-69.33,7.7-122.58,2.11-176.26-9.3-87.92-34.07-162.42-61.01-218.81-26.3-58.07-54.78-98.03-56.65-155.77-.97-46.51,20.96-100.89,57.86-158.03,35.96-56.8,86.87-116.37,122.24-165.38"/><path class="cls-1" d="m461.17,1150.27c45.97-121.27,63.04-209.39,71.5-280.82,7.76-71.41,6.92-126.13.79-179.96-10.4-88.29-35.45-159.81-62.51-213.43-26.43-55.22-54.87-92.53-57.46-149.3-1.46-45.71,19.79-100.44,56.71-158.29,35.99-57.52,87.65-118.17,125.52-167.87"/><path class="cls-1" d="m452.54,1150.27c47.17-121.85,64.74-212.34,73.14-285.59,7.72-73.29,6.29-129.34-.33-183.26-11.38-88.54-36.7-157.14-63.87-208.09-26.55-52.47-54.95-87.29-58.29-143.22-1.98-45.03,18.55-100.18,55.42-158.84,35.95-58.32,88.24-120.16,128.45-170.67"/><path class="cls-1" d="m443.9,1150.27c48.39-122.23,66.51-214.87,74.92-289.75,7.75-75,5.8-132.25-1.24-186.18-12.27-88.66-37.82-154.4-65.08-202.79-26.66-49.82-55.03-82.3-59.14-137.54-2.5-44.46,17.26-100.1,54.01-159.65,35.83-59.2,88.64-122.31,131.04-173.76"/><path class="cls-1" d="m435.26,1150.27c49.61-122.42,68.35-216.98,76.84-293.34,7.85-76.52,5.46-134.84-1.96-188.72-13.06-88.68-38.81-151.61-66.15-197.54-26.76-47.28-55.12-77.56-60-132.22-3.05-43.99,15.93-100.21,52.48-160.72,35.64-60.16,88.86-124.61,133.29-177.13"/><path class="cls-1" d="m426.62,1150.27c50.83-122.43,70.25-218.7,78.88-296.35,8.02-77.88,5.25-137.14-2.49-190.91-13.75-88.58-39.68-148.78-67.09-192.34-26.86-44.85-55.2-73.07-60.86-127.3-3.6-43.64,14.55-100.49,50.84-162.02,35.38-61.19,88.9-127.06,135.21-180.74"/><path class="cls-1" d="m417.98,1150.27c52.05-122.27,72.21-220.04,81.04-298.83,8.25-79.07,5.17-139.15-2.83-192.74-14.35-88.38-40.43-145.9-67.91-187.21-26.94-42.52-55.27-68.84-61.74-122.74-4.17-43.38,13.14-100.92,49.09-163.55C450.7,122.92,504.41,55.56,552.45.61"/><path class="cls-1" d="m409.34,1150.27c53.27-121.93,74.21-221.01,83.3-300.77,8.53-80.11,5.21-140.9-3.01-194.25-14.86-88.07-41.07-142.99-68.6-182.15-27.02-40.31-55.35-64.85-62.62-118.55-4.75-43.21,11.69-101.5,47.26-165.28C440.36,125.84,494.17,56.94,543.8.62"/><path class="cls-1" d="m400.7,1150.27c54.47-121.44,76.24-221.63,85.65-302.22,8.87-80.99,5.38-142.37-3.01-195.43-15.28-87.68-41.6-140.06-69.17-177.18-27.09-38.19-55.43-61.12-63.5-114.72-5.34-43.14,10.22-102.23,45.34-167.2C430.25,128.9,484.06,58.41,535.15.62"/><path class="cls-1" d="m392.06,1150.27c55.67-120.79,78.31-221.9,88.08-303.17,9.27-81.72,5.66-143.59-2.86-196.31-15.62-87.2-42.02-137.12-69.63-172.29-27.15-36.19-55.5-57.63-64.39-111.25-5.93-43.15,8.72-103.08,43.34-169.29C420.37,132.1,474.1,59.97,526.5.63"/><path class="cls-1" d="m383.43,1150.28c56.84-120,80.4-221.86,90.59-303.66,9.71-82.3,6.04-144.55-2.55-196.89-15.88-86.63-42.34-134.16-69.97-167.51-27.2-34.29-55.57-54.4-65.26-108.13-6.52-43.26,7.21-104.07,41.27-171.56C410.72,135.4,464.26,61.6,517.85.64"/><path class="cls-1" d="m374.79,1150.28c58-119.06,82.51-221.49,93.15-303.7,10.2-82.75,6.53-145.29-2.1-197.2-16.06-86-42.56-131.21-70.21-162.83-27.25-32.51-55.64-51.41-66.13-105.36-7.11-43.44,5.69-105.16,39.15-173.96C401.27,138.81,454.56,63.3,509.2.65"/><path class="cls-1" d="m366.15,1150.29c59.13-118,84.62-220.83,95.77-303.31,10.73-83.07,7.11-145.79-1.5-197.23-16.16-85.28-42.69-128.26-70.35-158.26-27.29-30.83-55.71-48.67-66.99-102.93-7.71-43.7,4.16-106.35,36.97-176.49C392.03,142.31,444.98,65.06,500.55.65"/><path class="cls-1" d="m357.51,1150.29c60.23-116.82,86.74-219.88,98.42-302.51,11.31-83.26,7.79-146.08-.78-197-16.19-84.5-42.73-125.33-70.39-153.81-27.32-29.26-55.77-46.19-67.84-100.83-8.3-44.03,2.62-107.64,34.75-179.13C382.99,145.88,435.52,66.88,491.9.66"/><path class="cls-1" d="m348.87,1150.3c61.3-115.51,88.84-218.66,101.11-301.32,11.92-83.33,8.56-146.16.07-196.53-16.15-83.66-42.68-122.41-70.34-149.49-27.35-27.81-55.83-43.95-68.68-99.07-8.88-44.43,1.1-109.02,32.5-181.88C374.14,149.52,426.18,68.76,483.25.67"/><path class="cls-1" d="m340.23,1150.31c62.33-114.1,90.93-217.19,103.81-299.76,12.57-83.28,9.41-146.04,1.04-195.84-16.05-82.77-42.55-119.52-70.2-145.31-27.37-26.46-55.89-41.95-69.49-97.64-9.46-44.9-.42-110.47,30.22-184.71C365.48,153.2,416.96,70.67,474.6.68"/><path class="cls-1" d="m331.59,1150.32c63.32-112.59,93-215.47,106.52-297.84,13.25-83.12,10.33-145.74,2.12-194.93-15.89-81.83-42.34-116.68-69.98-141.28-27.38-25.22-55.94-40.2-70.29-96.52-10.03-45.42-1.93-111.98,27.92-187.6C356.99,156.91,407.84,72.62,465.96.69"/><path class="cls-1" d="m322.95,1150.32c64.27-110.97,95.04-213.51,109.23-295.59,13.95-82.85,11.33-145.26,3.3-193.82-15.66-80.83-42.07-113.87-69.67-137.4-27.39-24.1-55.98-38.7-71.06-95.73-10.58-46-3.42-113.56,25.61-190.55C348.66,160.64,398.83,74.61,457.31.7"/><path class="cls-1" d="m314.31,1150.33c65.16-109.28,97.04-211.35,111.93-293.04,14.69-82.49,12.39-144.6,4.58-192.51-15.38-79.81-41.72-111.11-69.29-133.68-27.4-23.09-56.03-37.45-71.8-95.24-11.12-46.65-4.88-115.19,23.31-193.54C340.5,164.38,389.92,76.61,448.66.71"/><path class="cls-1" d="m305.67,1150.34c66.01-107.51,99-208.98,114.6-290.18,15.45-82.03,13.51-143.8,5.94-191.02-15.04-78.74-41.3-108.41-68.84-130.14-27.39-22.19-56.06-36.44-72.52-95.06-11.65-47.33-6.32-116.84,21.01-196.54C332.49,168.11,381.12,78.64,440.02.72"/><path class="cls-1" d="m297.03,1150.35c66.8-105.65,100.9-206.42,117.25-287.05,16.22-81.48,14.69-142.83,7.39-189.38-14.65-77.66-40.83-105.78-68.33-126.77-27.39-21.4-56.09-35.67-73.2-95.17-12.16-48.07-7.72-118.54,18.72-199.55C324.63,171.82,372.4,80.67,431.37.73"/><path class="cls-1" d="m288.38,1150.36c67.52-103.74,102.74-203.69,119.84-283.66,17.02-80.85,15.91-141.73,8.92-187.58-14.21-76.55-40.3-103.23-67.75-123.59-27.38-20.73-56.12-35.15-73.85-95.59-12.65-48.85-9.09-120.25,16.46-202.56C316.9,175.5,363.78,82.7,422.73.73"/><path class="cls-1" d="m279.74,1150.37c68.18-101.76,104.52-200.79,122.39-280.04,17.83-80.14,17.18-140.5,10.51-185.64-13.73-75.42-39.71-100.75-67.12-120.6-27.36-20.17-56.14-34.87-74.46-96.29-13.12-49.67-10.41-121.97,14.24-205.54C309.31,179.12,355.25,84.73,414.09.74"/><path class="cls-1" d="m271.1,1150.38c68.78-99.74,106.22-197.75,124.86-276.2,18.65-79.36,18.49-139.15,12.16-183.57-26.35-150.24-103.66-91.87-141.46-215.1-13.57-50.53-11.68-123.7,12.05-208.48C301.84,182.69,346.8,86.75,405.44.75"/><path class="cls-1" d="m262.46,1150.39c69.3-97.68,107.84-194.58,127.26-272.16,19.47-78.51,19.84-137.69,13.87-181.4-25.44-147.62-102.63-88.13-141.25-213.8-13.98-51.41-12.9-125.42,9.91-211.36C294.48,186.18,338.43,88.75,396.8.76"/><path class="cls-1" d="m253.82,1150.4c69.74-95.57,109.36-191.28,129.58-267.94,20.31-77.6,21.21-136.14,15.62-179.12-24.45-145.01-101.59-84.8-140.95-212.99-14.38-52.32-14.05-127.12,7.84-214.17C287.24,189.58,330.14,90.73,388.15.77"/><path class="cls-1" d="m245.17,1150.41c70.1-93.43,110.79-187.88,131.8-263.56,21.14-76.63,22.6-134.49,17.42-176.76-23.39-142.41-100.54-81.91-140.57-212.68-14.74-53.26-15.15-128.79,5.83-216.9,20.45-87.64,62.28-187.85,119.86-279.73"/><path class="cls-1" d="m236.53,1150.42c70.38-91.29,112.12-184.39,133.91-259.04,21.98-75.61,24.02-132.76,19.24-174.32-22.27-139.8-99.49-79.47-140.09-212.87-15.06-54.22-16.17-130.43,3.89-219.52,19.56-88.61,60.29-190.1,117.39-283.88"/><path class="cls-1" d="m227.88,1150.44c70.57-89.11,113.33-180.82,135.91-254.4,22.81-74.55,25.44-130.97,21.09-171.83-21.1-137.23-98.45-77.49-139.53-213.56-15.36-55.19-17.12-132.03,2.04-222.03,18.69-89.52,58.3-192.19,114.84-287.82"/><path class="cls-1" d="m219.24,1150.45c70.67-86.93,114.42-177.18,137.77-249.65,23.64-73.44,26.88-129.1,22.96-169.28-19.86-134.7-97.41-75.98-138.89-214.75-15.62-56.18-18-133.58.27-224.41,17.83-90.34,56.31-194.11,112.22-291.54"/><path class="cls-1" d="m210.59,1150.46c70.67-84.76,115.38-173.5,139.5-244.83,24.45-72.3,28.31-127.19,24.84-166.71-18.59-132.21-96.4-74.94-138.16-216.46-15.84-57.17-18.78-135.06-1.39-226.64C252.37,204.75,289.7,99.98,344.94.81"/><path class="cls-1" d="m201.95,1150.47c70.57-82.59,116.21-169.77,141.08-239.94,25.25-71.13,29.74-125.24,26.73-164.1-17.26-129.77-95.41-74.4-137.35-218.67-16.01-58.17-19.48-136.46-2.94-228.7C245.62,207.33,281.8,101.67,336.3.82"/><path class="cls-1" d="m193.3,1150.48c70.36-80.43,116.89-166.03,142.5-235,26.04-69.94,31.16-123.25,28.61-161.49-15.9-127.39-94.45-74.35-136.47-221.4-16.15-59.17-20.09-137.79-4.38-230.59,15.36-92.26,50.37-198.71,104.1-301.16"/><path class="cls-1" d="m184.66,1150.49c70.05-78.3,117.42-162.28,143.75-230.04,26.81-68.73,32.57-121.24,30.48-158.88-6.27-63.42-30.95-80.97-57.61-102.91-26.97-21.66-55.91-47.7-77.89-121.74-16.24-60.16-20.59-139.03-5.69-232.29,14.59-92.71,48.43-199.81,101.33-303.79"/><path class="cls-1" d="m176.01,1150.5c69.62-76.2,117.8-158.53,144.82-225.07,27.56-67.5,33.96-119.22,32.33-156.3-5.47-62.51-30.05-80.05-56.63-102.89-26.92-22.5-55.84-50.31-77.83-125.53-16.29-61.16-20.99-140.16-6.87-233.77,13.85-93.04,46.53-200.69,98.55-306.1"/><path class="cls-1" d="m167.36,1150.51c69.08-74.13,118.01-154.8,145.7-220.12,28.28-66.27,35.32-117.2,34.16-153.74-4.67-61.65-29.15-79.3-55.66-103.17-26.87-23.46-55.76-53.14-77.7-129.54-16.29-62.14-21.28-141.19-7.9-235.03C219.11,215.65,250.63,107.61,301.74.85"/><path class="cls-1" d="m158.71,1150.52c68.41-72.1,118.04-151.09,146.38-215.2,28.97-65.04,36.65-115.19,35.96-151.23-3.86-60.84-28.25-78.74-54.68-103.76-26.82-24.55-55.68-56.21-77.49-133.77-16.23-63.1-21.46-142.1-8.79-236.05C212.56,217.17,242.93,108.87,293.1.85"/><path class="cls-1" d="m150.06,1150.53c67.63-70.14,117.9-147.45,146.84-210.33,29.64-63.81,37.95-113.18,37.72-148.77-3.06-60.11-27.36-78.37-53.72-104.66-26.77-25.75-55.58-59.52-77.2-138.21-16.13-64.05-21.52-142.89-9.51-236.82C206.04,218.43,235.27,110.01,284.46.86"/><path class="cls-1" d="m141.41,1150.54c66.71-68.22,117.57-143.85,147.09-205.52,30.27-62.58,39.21-111.21,39.44-146.38-2.25-59.44-26.49-78.2-52.76-105.88-26.71-27.07-55.47-63.07-76.83-142.87-15.96-64.98-21.45-143.53-10.07-237.31C199.52,219.42,227.64,111.04,275.82.86"/><path class="cls-1" d="m132.76,1150.55c65.66-66.37,117.04-140.33,147.1-200.81,30.87-61.38,40.41-109.28,41.1-144.08-1.45-58.86-25.63-78.24-51.83-107.45-26.66-28.52-55.35-66.85-76.37-147.72-15.74-65.88-21.25-144.03-10.45-237.51C193.01,220.14,220.03,111.95,267.18.87"/><path class="cls-1" d="m124.11,1150.56c64.47-64.59,116.31-136.89,146.86-196.21,31.42-60.19,41.57-107.4,42.7-141.87-.66-58.35-24.78-78.5-50.92-109.35-26.61-30.08-55.22-70.87-75.82-152.77-15.47-66.75-20.92-144.37-10.65-237.42C186.5,220.55,212.44,112.74,258.54.87"/><path class="cls-1" d="m115.46,1150.57c63.15-62.9,115.36-133.56,146.38-191.74,31.94-59.02,42.67-105.57,44.24-139.76.12-57.93-23.97-78.98-50.03-111.6-26.55-31.77-55.08-75.11-75.18-158.02-15.13-67.59-20.45-144.55-10.66-237.01C179.97,220.66,204.87,113.39,249.9.87"/><path class="cls-1" d="m106.81,1150.58c61.67-61.29,114.2-130.34,145.62-187.41,32.41-57.89,43.71-103.8,45.7-137.79.89-57.6-23.18-79.68-49.18-114.2-26.5-33.58-54.93-79.59-74.45-163.45-14.72-68.39-19.83-144.56-10.46-236.27C173.43,220.46,197.31,113.9,241.26.87"/><path class="cls-1" d="m98.15,1150.58c60.06-59.78,112.81-127.25,144.6-183.25,32.83-56.79,44.68-102.11,47.08-135.94,1.64-57.36-22.43-80.63-48.36-117.17-26.45-35.52-54.76-84.3-73.62-169.07-14.26-69.16-19.07-144.38-10.06-235.18C166.86,219.91,189.76,114.26,232.62.87"/><path class="cls-1" d="m89.5,1150.59c58.28-58.37,111.19-124.31,143.28-179.28,33.2-55.74,45.58-100.5,48.37-134.24,2.37-57.23-21.71-81.82-47.58-120.51-26.4-37.58-54.59-89.25-72.69-174.85-13.72-69.88-18.15-144.01-9.44-233.72C160.26,219.01,182.22,114.47,223.98.88"/><path class="cls-1" d="m80.84,1150.6c56.36-57.07,109.33-121.52,141.68-175.51,33.51-54.73,46.4-99,49.57-132.7,3.08-57.22-21.03-83.27-46.84-124.24-26.35-39.76-54.4-94.43-71.66-180.82-13.12-70.54-17.07-143.44-8.59-231.89C153.62,217.76,174.68,114.52,215.34.88"/><path class="cls-1" d="m72.19,1150.61c54.27-55.89,107.22-118.9,139.76-171.96,33.77-53.77,47.14-97.59,50.66-131.34,3.76-57.3-20.4-84.96-46.16-128.35-26.3-42.07-54.2-99.85-70.53-186.95-12.44-71.16-15.82-142.66-7.51-229.66C146.93,216.13,167.14,114.4,206.7.87"/><path class="cls-1" d="m63.53,1150.61c52.01-54.82,104.85-116.46,137.53-168.66,33.97-52.87,47.79-96.3,51.64-130.16,4.41-57.51-19.82-86.94-45.52-132.86-26.25-44.5-53.99-105.48-69.29-193.24-11.69-71.72-14.4-141.66-6.18-227.03C140.18,214.1,159.59,114.1,198.06.87"/><path class="cls-1" d="m54.87,1150.61c49.59-53.9,102.22-114.22,134.97-165.62,34.11-52.03,48.34-95.14,52.51-129.18,5.03-57.84-19.29-89.18-44.95-137.77-26.21-47.05-53.76-111.35-67.93-199.69-10.87-72.22-12.81-140.43-4.61-223.97C133.38,211.67,152.04,113.62,189.42.87"/><path class="cls-1" d="m46.21,1150.62c47-53.11,99.32-112.2,132.07-162.87,34.18-51.26,48.79-94.11,53.26-128.41,5.61-58.3-18.82-91.71-44.43-143.1-26.17-49.74-53.52-117.45-66.47-206.29-9.97-72.66-11.04-138.95-2.77-220.46C126.5,208.83,144.47,112.96,180.78.87"/><path class="cls-1" d="m37.55,1150.62c44.23-52.46,96.14-110.4,128.83-160.41,34.18-50.57,49.14-93.21,53.87-127.87,6.16-58.9-18.41-94.53-43.99-148.84-26.13-52.55-53.27-123.78-64.88-213.04-8.98-73.03-9.09-137.23-.67-216.51C119.54,205.56,136.89,112.1,172.14.86"/><path class="cls-1" d="m28.89,1150.62c41.28-51.97,92.67-108.83,125.23-158.28,34.11-49.95,49.38-92.48,54.35-127.56,6.67-59.64-18.06-97.65-43.61-155.02-26.09-55.48-53.01-130.34-63.18-219.93-7.92-73.33-6.94-135.26,1.71-212.08C112.5,201.84,129.28,111.04,163.5.86"/><path class="cls-1" d="m20.23,1150.62c38.14-51.63,88.91-107.52,121.25-156.48,33.96-49.42,49.5-91.91,54.68-127.51,7.13-60.52-17.78-101.06-43.31-161.63-26.06-58.55-52.72-137.13-61.36-226.96-6.77-73.56-4.6-133.02,4.38-207.17C105.36,197.66,121.65,109.76,154.86.85"/><path class="cls-1" d="m11.57,1150.63c34.82-51.47,84.85-106.48,116.9-155.05,33.74-48.98,49.5-91.52,54.86-127.72,7.55-61.56-17.58-104.8-43.09-168.7-26.03-61.74-52.43-144.14-59.41-234.11-5.54-73.7-2.05-130.5,7.34-201.75C98.13,193.01,114,108.27,146.22.84"/></svg>