<?xml version="1.0" encoding="UTF-8"?><svg id="Layer_1" xmlns="http://www.w3.org/2000/svg" viewBox="0 0 1920 712.19"><defs><style>.cls-1{fill:none;stroke:#031684;stroke-miterlimit:10;}</style></defs><path class="cls-1" d="m.56,535.14c192.33,40.3,313.63,55.98,412.94,65.89,98.63,9.11,175.28,12.45,262.46,9.65,141.97-3.83,287.08-27.12,401.33-53.48,117.7-25.69,204.54-54.46,309.89-53.65,84.98.75,175,25.01,267.25,60.96,91.68,35,185.6,81.67,265.26,105.31"/><path class="cls-1" d="m.56,526.5c195.12,41.38,322.42,57.19,426.4,66.65,103.42,8.68,183.52,11.01,271.51,7.42,143.52-5.37,283.32-29.08,392.28-55.61,112.25-25.86,193.66-54.54,296.38-54.36,82.82.36,172.78,24.12,265.54,60.44,92.2,35.37,187.2,83.3,267.01,110.13"/><path class="cls-1" d="m.57,517.86c197.52,42.51,330.4,58.51,438.69,67.61,107.87,8.33,191.15,9.74,279.81,5.42,144.83-6.79,279.39-30.89,383.23-57.58,106.96-26.02,183.22-54.62,283.56-55.09,80.88-.06,170.94,23.14,264.41,59.74,92.9,35.66,189.19,84.72,269.41,114.56"/><path class="cls-1" d="m.57,509.21c199.54,43.65,337.57,59.94,449.84,68.75,111.98,8.06,198.2,8.65,287.39,3.65,145.91-8.1,275.3-32.55,374.19-59.38,101.85-26.17,173.2-54.71,271.43-55.86,79.15-.5,169.49,22.09,263.83,58.89,93.77,35.86,191.54,85.92,272.43,118.6"/><path class="cls-1" d="m.57,500.57c201.19,44.82,343.98,61.47,459.9,70.07,115.76,7.87,204.66,7.7,294.25,2.12,146.75-9.3,271.08-34.08,365.19-61.03,96.92-26.31,163.6-54.79,259.96-56.65,77.62-.97,168.39,20.98,263.77,57.88,94.81,35.97,194.23,86.9,276.04,122.26"/><path class="cls-1" d="m.58,491.93c202.49,46,349.62,63.09,468.89,71.56,119.22,7.77,210.57,6.92,300.43.79,147.37-10.4,266.74-35.46,356.22-62.52,92.15-26.43,154.42-54.88,249.17-57.47,76.29-1.47,167.63,19.8,264.2,56.73,96,36,197.25,87.68,280.2,125.55"/><path class="cls-1" d="m.58,483.29c203.45,47.22,354.54,64.79,476.84,73.2,122.37,7.73,215.94,6.29,305.94-.33,147.79-11.38,262.27-36.71,347.31-63.88,87.56-26.55,145.67-54.96,239.02-58.3,75.16-1.97,167.2,18.56,265.12,55.45,97.35,35.96,200.56,88.27,284.87,128.48"/><path class="cls-1" d="m.58,474.64c204.08,48.43,358.75,66.56,483.78,74.99,125.21,7.76,220.78,5.82,310.81-1.24,148-12.27,257.71-37.83,338.46-65.09,83.15-26.67,137.34-55.05,229.53-59.15,74.2-2.51,167.08,17.28,266.47,54.04,98.82,35.84,204.16,88.67,290.03,131.07"/><path class="cls-1" d="m.58,466c204.4,49.65,362.28,68.41,489.76,76.91,127.76,7.86,225.11,5.47,315.05-1.95,148.02-13.07,253.05-38.82,329.7-66.17,78.91-26.77,129.44-55.12,220.67-60,73.43-3.05,167.26,15.94,268.25,52.51,100.42,35.66,208,88.89,295.65,133.32"/><path class="cls-1" d="m.58,457.36c204.41,50.87,365.15,70.31,494.79,78.96,130.03,8.03,228.96,5.26,318.7-2.48,147.86-13.75,248.32-39.69,321.04-67.11,74.85-26.86,121.95-55.21,212.45-60.88,72.83-3.6,167.72,14.57,270.43,50.87,102.13,35.4,212.08,88.94,301.69,135.26"/><path class="cls-1" d="m.58,448.72c204.13,52.08,367.38,72.27,498.91,81.11,132.02,8.26,232.31,5.18,321.77-2.82,147.52-14.35,243.53-40.44,312.48-67.92,70.97-26.95,114.88-55.29,204.84-61.75,72.4-4.17,168.44,13.15,272.98,49.12,103.95,35.08,216.38,88.82,308.11,136.87"/><path class="cls-1" d="m.58,440.07c203.57,53.3,369,74.27,502.16,83.37,133.74,8.54,235.22,5.22,324.28-3,147.02-14.86,238.68-41.08,304.04-68.61,67.27-27.02,108.23-55.36,197.85-62.63,72.12-4.75,169.42,11.71,275.87,47.29,105.86,34.7,220.87,88.54,314.88,138.18"/><path class="cls-1" d="m.58,431.43c202.74,54.51,370.02,76.31,504.56,85.72,135.21,8.88,237.67,5.39,326.26-3,146.36-15.28,233.79-41.6,295.74-69.18,63.74-27.09,102.01-55.45,191.47-63.52,72-5.33,170.63,10.23,279.08,45.37,107.85,34.27,225.52,88.1,321.98,139.2"/><path class="cls-1" d="m.58,422.79c201.66,55.72,370.48,78.38,506.15,88.16,136.43,9.28,239.7,5.67,327.72-2.84,145.56-15.62,228.88-42.03,287.59-69.64,60.4-27.15,96.19-55.51,185.68-64.4,72.03-5.92,172.06,8.74,282.58,43.37,109.92,33.78,230.33,87.53,329.36,139.94"/><path class="cls-1" d="m.57,414.15c200.33,56.89,370.39,80.47,506.96,90.67,137.41,9.72,241.33,6.05,328.69-2.53,144.62-15.87,223.95-42.34,279.6-69.98,57.24-27.21,90.8-55.59,180.47-65.28,72.2-6.52,173.69,7.22,286.35,41.3,112.05,33.24,235.26,86.81,337,140.42"/><path class="cls-1" d="m.57,405.5c198.78,58.05,369.78,82.58,507.02,93.24,138.15,10.21,242.55,6.54,329.19-2.08,143.55-16.05,219.01-42.57,271.79-70.23,54.26-27.25,85.82-55.65,175.85-66.15,72.5-7.11,175.52,5.7,290.36,39.18,114.23,32.65,240.29,85.96,344.86,140.62"/><path class="cls-1" d="m.57,396.86c197,59.17,368.67,84.69,506.37,95.85,138.68,10.75,243.39,7.14,329.25-1.48,142.36-16.16,214.09-42.69,264.16-70.36,51.46-27.3,81.25-55.73,171.79-67.01,72.93-7.7,177.51,4.17,294.58,37.01,116.46,32.01,245.41,84.99,352.91,140.58"/><path class="cls-1" d="m.56,388.22c195.02,60.28,367.09,86.81,505.03,98.51,139,11.32,243.87,7.81,328.87-.76,141.06-16.19,209.2-42.73,256.74-70.4,48.84-27.33,77.1-55.79,168.3-67.86,73.48-8.29,179.66,2.64,299,34.78,118.72,31.34,250.59,83.9,361.12,140.31"/><path class="cls-1" d="m.56,379.58c192.84,61.35,365.05,88.92,503.04,101.2,139.11,11.93,244,8.58,328.09.09,139.66-16.16,204.33-42.69,249.54-70.36,46.41-27.35,73.36-55.85,165.36-68.69,74.15-8.88,181.96,1.11,303.58,32.53,120.99,30.63,255.8,82.71,369.45,139.8"/><path class="cls-1" d="m.55,370.93c190.48,62.38,362.58,91.01,500.43,103.9,139.03,12.58,243.81,9.43,326.93,1.06,138.17-16.05,199.52-42.56,242.56-70.21,44.16-27.38,70.03-55.9,162.97-69.51,74.93-9.46,184.38-.41,308.3,30.25,123.28,29.89,261.04,81.4,377.87,139.08"/><path class="cls-1" d="m.55,362.29c187.95,63.37,359.71,93.08,497.23,106.62,138.76,13.26,243.29,10.35,325.41,2.14,136.59-15.89,194.76-42.35,235.84-69.99,42.1-27.39,67.11-55.95,161.11-70.3,75.81-10.03,186.92-1.92,313.14,27.95,125.57,29.12,266.26,80.01,386.34,138.15"/><path class="cls-1" d="m.54,353.65c185.26,64.32,356.45,95.12,493.48,109.33,138.32,13.97,242.49,11.35,323.55,3.32,134.94-15.66,190.08-42.07,229.36-69.69,40.23-27.4,64.61-56,159.78-71.07,76.78-10.58,189.54-3.41,318.06,25.65,127.86,28.32,271.47,78.52,394.84,137.03"/><path class="cls-1" d="m.54,345c182.44,65.22,352.83,97.12,489.2,112.03,137.71,14.71,241.4,12.42,321.37,4.6,133.22-15.38,185.48-41.72,223.16-69.31,38.54-27.4,62.51-56.04,158.97-71.82,77.86-11.13,192.26-4.87,323.04,23.34,130.12,27.5,276.63,76.95,403.33,135.73"/><path class="cls-1" d="m.53,336.36c179.47,66.06,348.87,99.08,484.43,114.7,136.95,15.46,240.05,13.54,318.89,5.97,131.45-15.04,180.98-41.31,217.24-68.86,37.04-27.4,60.82-56.07,158.66-72.54,79.01-11.65,195.03-6.31,328.06,21.04,132.35,26.65,281.72,75.31,411.78,134.24"/><path class="cls-1" d="m.53,327.72c176.37,66.85,344.6,100.98,479.2,117.34,136.03,16.24,238.44,14.72,316.14,7.42,129.63-14.65,176.59-40.83,211.62-68.34,35.73-27.4,59.54-56.12,158.86-73.22,80.24-12.16,197.85-7.71,333.09,18.75,134.55,25.79,286.71,73.6,420.15,132.6"/><path class="cls-1" d="m.52,319.07c173.18,67.57,340.04,102.82,473.55,119.94,134.98,17.04,236.61,15.94,313.13,8.95,127.78-14.21,172.32-40.3,206.31-67.76,34.61-27.39,58.67-56.14,159.55-73.87,81.54-12.65,200.71-9.08,338.1,16.49,136.69,24.92,291.6,71.83,428.42,130.81"/><path class="cls-1" d="m.51,310.43c169.88,68.23,335.2,104.6,467.49,122.48,133.79,17.85,234.56,17.21,309.9,10.54,125.89-13.72,168.18-39.72,201.33-67.13,33.67-27.37,58.2-56.16,160.73-74.48,82.91-13.12,203.59-10.4,343.08,14.26,138.77,24.04,296.35,70.01,436.54,128.88"/><path class="cls-1" d="m.51,301.79c166.5,68.83,330.12,106.3,461.08,124.96,132.48,18.67,232.31,18.53,306.46,12.19,123.99-13.2,164.2-39.08,196.68-66.44,32.93-27.35,58.13-56.18,162.38-75.05,84.33-13.57,206.47-11.67,347.98,12.08,140.79,23.15,300.94,68.14,444.49,126.81"/><path class="cls-1" d="m.5,293.14c163.05,69.34,324.82,107.92,454.34,127.36,131.06,19.5,229.87,19.86,302.82,13.9,122.07-12.63,160.37-38.4,192.38-65.7,32.38-27.33,58.48-56.18,164.5-75.58,85.81-13.98,209.34-12.89,352.8,9.94,142.71,22.25,305.36,66.23,452.23,124.64"/><path class="cls-1" d="m.49,284.5c159.53,69.79,319.32,109.44,447.29,129.68,129.54,20.33,227.27,21.24,299.02,15.65,242.08-24.44,141.58-101.61,355.54-140.98,87.33-14.38,212.18-14.05,357.49,7.86,144.56,21.35,309.58,64.29,459.73,122.34"/><path class="cls-1" d="m.49,275.85c155.97,70.15,313.64,110.87,439.98,131.9,127.93,21.16,224.52,22.64,295.08,17.45,237.72-23.38,136.76-100.57,355.01-140.59,88.89-14.74,214.98-15.14,362.05,5.85,146.29,20.47,313.58,62.33,466.96,119.95"/><path class="cls-1" d="m.48,267.21c152.37,70.42,307.81,112.19,432.43,134.01,126.23,22,221.63,24.05,291.01,19.28,233.39-22.27,132.68-99.51,355.32-140.12,90.49-15.07,217.72-16.17,366.43,3.91,147.92,19.58,317.33,60.35,473.88,117.48"/><path class="cls-1" d="m.47,258.56c148.75,70.61,301.85,113.4,424.68,136,124.45,22.83,218.62,25.47,286.84,21.13,229.09-21.08,129.37-98.46,356.47-139.56,92.12-15.36,220.38-17.12,370.62,2.06,149.43,18.71,320.82,58.35,480.46,114.93"/><path class="cls-1" d="m.46,249.92c145.11,70.71,295.78,114.49,416.76,137.87,122.6,23.66,215.52,26.91,282.59,23,224.86-19.85,126.84-97.43,358.47-138.91,93.76-15.62,222.96-17.99,374.59.29,150.8,17.85,324.03,56.35,486.67,112.31"/><path class="cls-1" d="m.46,241.27c141.48,70.71,289.62,115.45,408.7,139.6,120.7,24.47,212.33,28.34,278.29,24.88,220.7-18.57,125.11-96.42,361.31-138.19,95.42-15.84,225.43-18.78,378.31-1.36,152.03,17,326.92,54.36,492.48,109.64"/><path class="cls-1" d="m.45,232.63c137.86,70.61,283.41,116.28,400.53,141.17,118.75,25.27,209.06,29.77,273.94,26.76,216.62-17.25,124.2-95.44,365-137.38,97.09-16.02,227.78-19.48,381.76-2.92,153.11,16.18,329.49,52.38,497.85,106.93"/><path class="cls-1" d="m.44,223.98c134.26,70.4,277.16,116.96,392.29,142.59,116.75,26.06,205.75,31.2,269.59,28.65,107.46-7.05,137-31.85,172.31-58.59,34.95-27.02,75.67-55.99,197.25-77.9,98.75-16.16,229.99-20.09,384.91-4.36,154.02,15.38,331.71,50.42,502.74,104.18"/><path class="cls-1" d="m.44,215.34c130.7,70.08,270.89,117.49,384.01,143.84,114.73,26.83,202.4,32.6,265.24,30.52,105.86-6.26,135.17-30.95,171.78-57.62,36.15-26.98,79.61-55.93,203.19-77.91,100.42-16.25,232.06-20.59,387.74-5.67,154.76,14.61,333.56,48.48,507.13,101.41"/><path class="cls-1" d="m.43,206.69c127.19,69.65,264.63,117.86,375.72,144.91,112.69,27.58,199.02,34,260.92,32.37,104.34-5.46,133.63-30.05,171.75-56.64,37.56-26.93,83.95-55.86,209.51-77.85,102.07-16.3,233.96-20.99,390.21-6.85,155.32,13.86,335.01,46.56,510.99,98.63"/><path class="cls-1" d="m.42,198.05c123.73,69.1,258.39,118.07,367.44,145.79,110.63,28.3,195.65,35.35,256.65,34.2,102.91-4.66,132.38-29.15,172.21-55.66,39.16-26.88,88.69-55.78,216.2-77.72,103.71-16.29,235.67-21.28,392.32-7.89,155.68,13.15,336.04,44.7,514.27,95.85"/><path class="cls-1" d="m.42,189.4c120.36,68.44,252.22,118.1,359.22,146.46,108.57,29,192.28,36.69,252.45,36,101.57-3.85,131.44-28.25,173.19-54.69,40.97-26.83,93.81-55.69,223.26-77.51,105.32-16.23,237.19-21.46,394.02-8.77,155.84,12.48,336.64,42.88,516.95,93.08"/><path class="cls-1" d="m.41,180.75c117.06,67.65,246.12,117.96,351.09,146.92,106.51,29.66,188.95,37.98,248.35,37.76,100.35-3.05,130.82-27.36,174.7-53.72,42.97-26.77,99.34-55.59,230.67-77.21,106.91-16.13,238.5-21.52,395.3-9.5,155.78,11.85,336.78,41.11,519,90.34"/><path class="cls-1" d="m.4,172.11c113.87,66.74,240.12,117.62,343.07,147.16,104.47,30.29,185.66,39.24,244.36,39.47,99.23-2.24,130.54-26.48,176.74-52.77,45.18-26.72,105.25-55.48,238.43-76.84,108.45-15.97,239.57-21.45,396.12-10.06,155.5,11.26,336.44,39.4,520.37,87.62"/><path class="cls-1" d="m.4,163.46c110.78,65.68,234.24,117.09,335.21,147.17,102.46,30.89,182.43,40.45,240.51,41.13,98.25-1.45,130.61-25.62,179.34-51.83,47.59-26.66,111.56-55.36,246.53-76.39,109.96-15.75,240.41-21.26,396.47-10.45,154.99,10.72,335.59,37.76,521.04,84.95"/><path class="cls-1" d="m.39,154.81c107.82,64.49,228.51,116.35,327.53,146.93,100.47,31.44,179.27,41.6,236.82,42.74,97.4-.65,131.03-24.78,182.51-50.92,50.2-26.61,118.26-55.23,254.96-75.84,111.41-15.47,240.98-20.93,396.31-10.65,154.23,10.23,334.22,36.19,520.98,82.33"/><path class="cls-1" d="m.39,146.16c104.99,63.16,222.94,115.41,320.06,146.44,98.53,31.96,176.22,42.7,233.31,44.27,96.7.13,131.82-23.97,186.26-50.03,53.02-26.56,125.34-55.09,263.71-75.2,112.82-15.12,241.28-20.45,395.63-10.65,153.21,9.79,332.31,34.71,520.15,79.77"/><path class="cls-1" d="m.38,137.52c102.3,61.69,217.57,114.24,312.83,145.68,96.64,32.43,173.27,43.74,230,45.73,96.14.9,133-23.18,190.6-49.18,56.04-26.51,132.82-54.94,272.77-74.47,114.15-14.73,241.29-19.84,394.39-10.46,151.93,9.41,329.83,33.31,518.52,77.29"/><path class="cls-1" d="m.38,128.87c99.78,60.06,212.41,112.85,305.89,144.65,94.8,32.85,170.45,44.71,226.92,47.12,95.75,1.65,134.58-22.42,195.55-48.35,59.27-26.46,140.68-54.78,282.14-73.64,115.42-14.26,241-19.08,392.57-10.06,150.37,9.09,326.75,32.01,516.05,74.9"/><path class="cls-1" d="m.37,120.22c97.42,58.29,207.49,111.22,299.25,143.33,93.04,33.22,167.77,45.61,224.08,48.41,95.53,2.38,136.56-21.7,201.13-47.58,62.7-26.4,148.94-54.59,291.8-72.72,116.62-13.72,240.38-18.15,390.14-9.44,148.53,8.83,323.07,30.81,512.72,72.6"/><path class="cls-1" d="m.37,111.57c95.25,56.36,202.84,109.36,292.96,141.72,91.35,33.53,165.25,46.43,221.51,49.6,95.49,3.09,138.97-21.03,207.34-46.84,66.34-26.35,157.57-54.41,301.75-71.69,117.73-13.13,239.42-17.08,387.09-8.59,146.39,8.65,318.75,29.72,508.48,70.42"/><path class="cls-1" d="m.36,102.92c93.27,54.27,198.46,107.24,287.04,139.8,89.76,33.79,162.9,47.17,219.23,50.69,95.64,3.77,141.81-20.39,214.2-46.15,70.19-26.31,166.6-54.21,311.98-70.55,118.77-12.45,238.12-15.83,383.37-7.51,143.94,8.53,313.78,28.76,503.31,68.34"/><path class="cls-1" d="m.36,94.27c91.5,52.01,194.4,104.87,281.53,137.56,88.25,33.99,160.75,47.81,217.26,51.68,95.99,4.41,145.09-19.81,221.72-45.52,74.25-26.26,176.01-53.99,322.48-69.3,119.7-11.7,236.45-14.41,378.97-6.19,141.18,8.48,308.14,27.91,497.18,66.4"/><path class="cls-1" d="m.36,85.62c89.95,49.59,190.66,102.23,276.46,135,86.86,34.12,158.8,48.37,215.62,52.54,96.54,5.03,148.84-19.28,229.91-44.95,78.51-26.21,185.8-53.77,333.24-67.95,120.54-10.87,234.39-12.82,373.87-4.61,138.09,8.51,301.8,27.19,490.05,64.6"/><path class="cls-1" d="m.35,76.97c88.63,46.99,187.27,99.33,271.85,132.09,85.57,34.19,157.09,48.81,214.34,53.29,97.31,5.63,153.06-18.81,238.8-44.43,82.99-26.17,195.98-53.53,344.26-66.49,121.27-9.97,231.94-11.05,368.02-2.78,134.66,8.63,294.73,26.62,481.88,62.95"/><path class="cls-1" d="m.35,68.32c87.55,44.21,184.27,96.14,267.75,128.84,84.41,34.2,155.6,49.17,213.43,53.9,98.31,6.17,157.76-18.4,248.38-43.98,87.68-26.13,206.54-53.28,355.51-64.9,121.89-8.99,229.07-9.1,361.42-.68,130.88,8.83,286.93,26.18,472.65,61.47"/><path class="cls-1" d="m.35,59.67c86.74,41.26,181.66,92.67,264.19,125.23,83.38,34.12,154.38,49.4,212.92,54.37,99.54,6.68,162.95-18.05,258.69-43.61,92.58-26.09,217.48-53.01,367-63.2,122.39-7.92,225.78-6.95,354.04,1.7,126.75,9.11,278.36,25.91,462.32,60.15"/><path class="cls-1" d="m.35,51.02c86.18,38.12,179.47,88.9,261.19,121.25,82.5,33.98,153.42,49.52,212.83,54.71,101.01,7.14,168.65-17.78,269.72-43.31,97.69-26.06,228.8-52.73,378.73-61.37,122.77-6.78,222.04-4.61,345.84,4.37,122.24,9.49,269.01,25.79,450.86,59.02"/><path class="cls-1" d="m.35,42.37c85.91,34.79,177.73,84.83,258.79,116.89,81.76,33.75,152.76,49.53,213.18,54.88,102.74,7.56,174.88-17.57,281.5-43.08,103.01-26.03,240.51-52.43,390.66-59.43,123.01-5.54,217.84-2.07,336.8,7.33,117.36,9.96,258.86,25.84,438.23,58.08"/></svg>