<svg xmlns="http://www.w3.org/2000/svg" xmlns:xlink="http://www.w3.org/1999/xlink" width="300" zoomAndPan="magnify" viewBox="0 0 224.87999 225" height="300" preserveAspectRatio="xMidYMid meet" version="1.0"><defs><g/><clipPath id="07699ddca6"><path d="M 22 14 L 224 14 L 224 166 L 22 166 Z M 22 14 " clip-rule="nonzero"/></clipPath><clipPath id="e7a01ab49d"><path d="M 121.242188 216.667969 L -2.476562 48.980469 L 106.097656 -31.128906 L 229.816406 136.5625 Z M 121.242188 216.667969 " clip-rule="nonzero"/></clipPath><clipPath id="d7d140df4e"><path d="M 121.242188 216.667969 L -2.476562 48.980469 L 106.097656 -31.128906 L 229.816406 136.5625 Z M 121.242188 216.667969 " clip-rule="nonzero"/></clipPath></defs><g clip-path="url(#07699ddca6)"><g clip-path="url(#e7a01ab49d)"><g clip-path="url(#d7d140df4e)"><path fill="#2900f5" d="M 30.398438 75.261719 C 27.835938 81.839844 25.355469 86.589844 23.164062 81.027344 C 22.480469 79.160156 22.398438 75.539062 23.5625 69.328125 C 24.753906 63.136719 27.140625 54.335938 31.859375 42.726562 C 40.210938 22.757812 44.546875 14.476562 46.355469 14.09375 C 47.546875 13.910156 49.929688 15.722656 55.238281 21.082031 C 60.589844 26.300781 68.773438 35.550781 82.605469 47.105469 C 86.523438 50.46875 94.148438 57.097656 93.898438 60.605469 C 93.710938 63.667969 88.21875 61.503906 83.304688 58.003906 C 68.371094 47.28125 59.460938 36.308594 57.367188 35.144531 C 56.148438 34.359375 57.789062 38.660156 59.011719 44.832031 C 61.320312 56.753906 64.59375 68.757812 68.5625 79.496094 C 74.601562 95.421875 82.933594 109.96875 93.359375 121.863281 C 103.707031 133.804688 115.960938 142.976562 128.421875 148.707031 C 140.933594 154.484375 153.4375 156.589844 164.347656 156.207031 C 175.277344 155.84375 184.433594 153.328125 191.15625 150.660156 C 202.492188 145.910156 209.191406 140.28125 213.183594 136.375 C 217.171875 132.398438 218.808594 130.191406 219.191406 129.730469 C 220.433594 128.339844 222.421875 127.230469 223.300781 128.160156 C 223.730469 128.632812 223.878906 129.628906 223.464844 131.433594 C 223.246094 132.335938 222.914062 133.460938 222.359375 134.785156 C 221.726562 136.058594 220.898438 137.554688 219.820312 139.300781 C 215.09375 146.6875 205.980469 154.152344 194.734375 158.917969 C 181.761719 164.53125 166.695312 166.617188 152.175781 165 C 137.527344 163.417969 124.03125 157.644531 112.742188 150.628906 C 97.949219 141.292969 86.75 129.433594 78.296875 117.597656 C 69.789062 105.714844 64.238281 93.65625 60.058594 82.789062 C 54.902344 68.605469 52.457031 57.375 50.746094 49.585938 C 49.125 41.773438 48.289062 37.34375 47.796875 36.3125 C 46.574219 33.703125 41.796875 46.140625 37.105469 57.246094 C 35.753906 60.335938 32.90625 68.644531 30.398438 75.261719 Z M 30.398438 75.261719 " fill-opacity="1" fill-rule="nonzero"/></g></g></g><g fill="#ffffff" fill-opacity="1"><g transform="translate(108.813807, 116.322966)"><g><path d="M 3.421875 -2.609375 L 2.359375 -1.609375 L 2.359375 0 L 0.9375 0 L 0.9375 -8.453125 L 2.359375 -8.453125 L 2.359375 -3.34375 L 5.3125 -6.078125 L 7.015625 -6.078125 L 4.46875 -3.53125 L 7.25 0 L 5.53125 0 Z M 3.421875 -2.609375 "/></g></g></g></svg>